<svg width="123" height="82" viewBox="0 0 123 82" fill="none" xmlns="http://www.w3.org/2000/svg">
<path opacity="0.5" d="M109.187 33.565C109.939 33.7987 110.737 33.9244 111.565 33.9244C112.394 33.9244 113.192 33.7987 113.943 33.565C114.695 33.3313 115.399 32.9897 116.037 32.5592C116.334 32.3583 116.611 32.1315 116.879 31.8937C118.523 30.4288 119.564 28.3025 119.564 25.9275C119.564 25.0994 119.439 24.3013 119.205 23.5497C119.049 23.0496 118.845 22.5699 118.599 22.1162C118.476 21.8894 118.343 21.6694 118.199 21.4576C117.48 20.3944 116.513 19.513 115.38 18.8967C114.247 18.2818 112.948 17.9319 111.568 17.9319C110.318 17.9319 109.14 18.2271 108.086 18.7382C108.429 19.7248 108.66 20.7634 108.754 21.8416C109.555 21.2881 110.523 20.9602 111.568 20.9602C114.308 20.9602 116.537 23.189 116.537 25.9275C116.537 28.666 114.308 30.8962 111.568 30.8962C109.86 30.8962 108.35 30.0284 107.456 28.7111C107.008 29.613 106.471 30.4616 105.834 31.2296C106.886 31.8158 107.851 32.5401 108.697 33.3846C108.858 33.4475 109.019 33.5131 109.187 33.565Z" fill="#00F6BB"/>
<path opacity="0.5" d="M114.97 36.0533H110.741C111.292 36.9949 111.725 38.0102 112.026 39.0829H114.97C117.725 39.0829 119.967 41.3254 119.967 44.0803V56.0961C119.967 56.5512 119.582 56.9366 119.127 56.9366H118.706H115.677V59.9648V71.5789C115.677 72.0339 115.292 72.4193 114.837 72.4193H108.296C108.145 72.4193 108.008 72.3646 107.884 72.2908C107.882 73.354 107.676 74.3679 107.316 75.3054C107.631 75.3887 107.956 75.4475 108.296 75.4475H114.837C115.902 75.4475 116.869 75.0116 117.57 74.3105C118.271 73.6095 118.707 72.642 118.707 71.5775V59.9634H119.13C121.257 59.9634 123 58.2225 123 56.0948V44.0789C123 42.6988 122.647 41.3978 122.027 40.2609C120.662 37.7601 118.005 36.0533 114.97 36.0533Z" fill="#00F6BB"/>
<path opacity="0.7" d="M92.066 30.7308C93.2099 31.2897 94.4905 31.6122 95.8489 31.6122C96.1468 31.6122 96.442 31.5971 96.7317 31.5671C97.3126 31.5083 97.8756 31.3922 98.4168 31.2227C98.958 31.0546 99.4759 30.8346 99.9652 30.5682C100.418 30.3222 100.843 30.0338 101.242 29.7141C102.138 28.9966 102.891 28.107 103.443 27.0917C103.71 26.6025 103.93 26.0846 104.098 25.5434C104.266 25.0023 104.382 24.4393 104.442 23.8585C104.472 23.5688 104.487 23.2736 104.487 22.9757C104.487 21.4849 104.11 20.0828 103.445 18.8598C102.647 17.3908 101.436 16.18 99.9666 15.382C99.4773 15.1155 98.9594 14.8955 98.4182 14.7274C97.877 14.5593 97.3139 14.4432 96.7331 14.383C96.4434 14.353 96.1482 14.338 95.8503 14.338C94.6135 14.338 93.4395 14.6031 92.3763 15.0704C92.7767 16.1062 93.0582 17.1995 93.1976 18.3391C93.9834 17.8882 94.8813 17.6094 95.8503 17.6094C98.809 17.6094 101.216 20.0159 101.216 22.9744C101.216 25.9329 98.809 28.3394 95.8503 28.3394C94.198 28.3394 92.7371 27.5727 91.7517 26.3962C91.2297 27.4006 90.5846 28.3298 89.8425 29.1716C89.9437 29.27 90.0489 29.3629 90.1555 29.4558C90.8292 29.8261 91.4634 30.2579 92.066 30.7308Z" fill="#00F6BB"/>
<path opacity="0.7" d="M108.194 55.5564V42.5785C108.194 42.2806 108.179 41.9854 108.149 41.6957C107.911 39.3726 106.745 37.3119 105.032 35.8962C103.531 34.6568 101.611 33.9106 99.5253 33.9106H95.0387C95.7152 34.915 96.2523 36.0165 96.6499 37.1821H99.5253C102.502 37.1821 104.924 39.6036 104.924 42.5785V55.5564C104.924 56.0483 104.508 56.4638 104.016 56.4638H103.56H100.288V59.7352V72.2772C100.288 72.7691 99.8725 73.1845 99.3805 73.1845H92.3163C92.3068 73.1845 92.2986 73.1791 92.289 73.1791V74.3707C92.289 75.0799 92.1974 75.7659 92.0403 76.4287C92.1332 76.4355 92.2221 76.456 92.3163 76.456H99.3791C99.6661 76.456 99.9476 76.4273 100.218 76.3713C100.761 76.2592 101.266 76.0419 101.711 75.7399C102.823 74.987 103.557 73.7134 103.557 72.2772V59.7352H104.013C104.876 59.7352 105.678 59.4715 106.346 59.0192C107.46 58.2662 108.194 56.9926 108.194 55.5564Z" fill="#00F6BB"/>
<path opacity="0.9" d="M79.4699 14.1248C82.7307 14.1248 85.3833 16.7772 85.3833 20.0377C85.3833 23.2983 82.7307 25.9507 79.4699 25.9507C77.6755 25.9507 76.0861 25.1308 75.001 23.8654C74.5158 25.0337 73.8763 26.1188 73.1191 27.1122C73.4061 27.3705 73.7068 27.6137 74.0239 27.8365C74.3163 28.0415 74.617 28.2355 74.9327 28.4063C75.2019 28.5525 75.4807 28.6865 75.7649 28.8067C76.9034 29.2877 78.1552 29.5542 79.4699 29.5542C80.7846 29.5542 82.0364 29.2877 83.1748 28.8067C83.4591 28.6865 83.7365 28.5525 84.0071 28.4063C84.3228 28.2355 84.6235 28.0415 84.9159 27.8365C86.124 26.9906 87.1313 25.8769 87.8392 24.5746C88.5717 23.2258 88.9885 21.6803 88.9885 20.0377C88.9885 14.7807 84.7273 10.5199 79.4699 10.5199C77.6905 10.5199 76.0301 11.0173 74.6047 11.8673C75.1527 12.981 75.575 14.1671 75.8251 15.4175C76.8323 14.6208 78.0882 14.1248 79.4699 14.1248Z" fill="#00F6BB"/>
<path opacity="0.9" d="M92.2862 58.5135C92.7837 57.7783 93.0761 56.8928 93.0761 55.9431V41.6411C93.0761 40.3278 92.8069 39.0734 92.3217 37.9323C91.8366 36.7899 91.1355 35.7609 90.2691 34.8945C90.0531 34.6786 89.8263 34.4723 89.5898 34.2769C87.9362 32.9117 85.8207 32.0891 83.522 32.0891H76.9621C77.8928 33.1659 78.6677 34.378 79.2553 35.6939H83.522C86.8019 35.6939 89.4709 38.3628 89.4709 41.6411V55.9431C89.4709 56.4856 89.0131 56.9434 88.4706 56.9434H87.9676H84.3625V60.5483V74.3707C84.3625 74.9132 83.9046 75.3709 83.3621 75.3709H75.5777C75.3632 75.3709 75.1732 75.2849 75.0078 75.166V77.0217C75.0078 77.6653 74.9422 78.2926 74.8179 78.8993C75.0666 78.9417 75.3181 78.9772 75.5777 78.9772H83.3621C83.9948 78.9772 84.6002 78.8474 85.1496 78.6137C86.8005 77.9127 87.9663 76.2715 87.9663 74.372V60.5483H88.4692C89.419 60.5483 90.3046 60.2572 91.0398 59.7584C91.5305 59.4277 91.9541 59.0027 92.2862 58.5135Z" fill="#00F6BB"/>
<path opacity="0.5" d="M11.4321 33.9244C12.4462 33.9244 13.411 33.7276 14.3034 33.3846C15.1494 32.5401 16.1142 31.8172 17.1665 31.2296C16.5297 30.4616 15.9926 29.613 15.5443 28.7111C14.6505 30.0284 13.1404 30.8962 11.4321 30.8962C8.69202 30.8962 6.4644 28.6674 6.4644 25.9275C6.4644 23.1876 8.69338 20.9602 11.4321 20.9602C12.4776 20.9602 13.4452 21.2881 14.246 21.8416C14.3403 20.7634 14.5713 19.7248 14.9143 18.7382C13.8606 18.2271 12.6812 17.9319 11.4308 17.9319C8.67015 17.9319 6.23617 19.3299 4.79984 21.4576C4.65634 21.6708 4.52241 21.8908 4.39941 22.1162C4.15342 22.5699 3.94979 23.0496 3.794 23.5497C3.5603 24.3013 3.43457 25.0994 3.43457 25.9275C3.43457 28.3025 4.47595 30.4288 6.11864 31.8937C6.19517 31.9607 6.26624 32.0345 6.34414 32.0987C7.72717 33.2397 9.4997 33.9244 11.4321 33.9244Z" fill="#00F6BB"/>
<path opacity="0.5" d="M14.7023 72.4193H8.16155C7.70646 72.4193 7.32107 72.0339 7.32107 71.5789V59.9648V56.9366H4.29124H3.86894C3.41385 56.9366 3.02846 56.5512 3.02846 56.0961V44.0803C3.02846 41.3254 5.27111 39.0829 8.02625 39.0829H10.97C11.2706 38.0102 11.7039 36.9962 12.2546 36.0533H8.02625C4.99095 36.0533 2.33558 37.7601 0.971678 40.2622C0.352592 41.3992 0 42.7001 0 44.0803V56.0961C0 57.1607 0.435956 58.1268 1.13704 58.8292C1.83812 59.5302 2.8057 59.9661 3.87031 59.9661H4.29124V71.5802C4.29124 72.6447 4.72719 73.6122 5.42828 74.3133C6.12936 75.0143 7.09694 75.4502 8.16155 75.4502H14.7023C15.0426 75.4502 15.3678 75.3915 15.6821 75.3081C15.3227 74.3693 15.1177 73.3553 15.115 72.2936C14.9906 72.366 14.854 72.4193 14.7023 72.4193Z" fill="#00F6BB"/>
<path opacity="0.7" d="M18.9006 25.5435C19.0687 26.0846 19.2887 26.6025 19.5552 27.0918C20.1073 28.1084 20.8603 28.9967 21.7568 29.7141C22.1559 30.0339 22.5809 30.3222 23.0333 30.5682C24.2564 31.2323 25.66 31.6108 27.1496 31.6108C28.508 31.6108 29.7886 31.2883 30.9324 30.7294C31.5338 30.258 32.1692 29.8248 32.8444 29.4558C32.9496 29.3629 33.0562 29.27 33.1573 29.1716C32.4139 28.3298 31.7702 27.4006 31.2481 26.3962C30.2628 27.5741 28.8018 28.3408 27.1496 28.3408C24.1908 28.3408 21.7842 25.9343 21.7842 22.9758C21.7842 20.0173 24.1908 17.6108 27.1496 17.6108C28.1185 17.6108 29.0164 17.8896 29.8022 18.3405C29.943 17.2022 30.2232 16.109 30.6236 15.0718C29.5603 14.6031 28.3864 14.3394 27.1496 14.3394C22.38 14.3394 18.5125 18.2053 18.5125 22.9758C18.5125 23.2737 18.5275 23.5689 18.5576 23.8586C18.615 24.4393 18.7311 25.0037 18.9006 25.5435Z" fill="#00F6BB" fill-opacity="0.9"/>
<path opacity="0.7" d="M30.7068 73.1804C30.6972 73.1804 30.6904 73.1859 30.6808 73.1859H23.6167C23.1247 73.1859 22.7092 72.7704 22.7092 72.2785V59.7365V56.4651H19.4375H18.981C18.489 56.4651 18.0736 56.0497 18.0736 55.5577V42.5798C18.0736 39.6036 20.4953 37.1834 23.4704 37.1834H26.3472C26.7449 36.0178 27.282 34.9164 27.9585 33.912H23.4718C19.0015 33.912 15.2938 37.3406 14.8483 41.6971C14.8183 41.9881 14.8032 42.2819 14.8032 42.5798V55.5577C14.8032 57.8562 16.6837 59.7365 18.9824 59.7365H19.4389V72.2785C19.4389 74.0017 20.4966 75.4912 21.9958 76.128C22.4946 76.3398 23.044 76.4573 23.618 76.4573H30.6808C30.7751 76.4573 30.8639 76.4355 30.9555 76.43C30.7983 75.7686 30.7068 75.0812 30.7068 74.372V73.1804Z" fill="#00F6BB" fill-opacity="0.9"/>
<path opacity="0.9" d="M38.0813 27.8365C38.3737 28.0415 38.6744 28.2355 38.9901 28.4063C39.2593 28.5526 39.5381 28.6865 39.8224 28.8067C40.9608 29.2878 42.2126 29.5542 43.5273 29.5542C44.842 29.5542 46.0938 29.2878 47.2323 28.8067C47.5165 28.6865 47.7939 28.5526 48.0645 28.4063C48.3802 28.2355 48.6809 28.0415 48.9733 27.8365C49.2904 27.6138 49.5911 27.3705 49.8781 27.1123C49.1223 26.1188 48.4814 25.0338 47.9962 23.864C46.9111 25.1294 45.3203 25.9493 43.5259 25.9493C40.2651 25.9493 37.6125 23.2969 37.6125 20.0364C37.6125 16.7759 40.2651 14.1234 43.5259 14.1234C44.9076 14.1234 46.1635 14.6195 47.1708 15.4162C47.4208 14.1658 47.8431 12.9797 48.3912 11.8659C46.9658 11.016 45.3067 10.5186 43.5259 10.5186C38.2685 10.5186 34.0073 14.7794 34.0073 20.0364C34.0073 21.679 34.4228 23.2245 35.1567 24.5732C35.8659 25.8769 36.8732 26.992 38.0813 27.8365Z" fill="#00F6BB"/>
<path opacity="0.9" d="M47.9893 75.166C47.824 75.2862 47.634 75.371 47.4194 75.371H39.6351C39.0925 75.371 38.6347 74.9132 38.6347 74.3707V60.5483V56.9434H35.0295H34.5266C33.9841 56.9434 33.5262 56.4856 33.5262 55.9431V41.6411C33.5262 38.3614 36.1953 35.6939 39.4752 35.6939H43.7418C44.3295 34.378 45.1057 33.1659 46.035 32.0891H39.4738C37.1751 32.0891 35.0596 32.9117 33.406 34.2769C33.1695 34.4723 32.9427 34.6786 32.7267 34.8945C31.8617 35.7595 31.1592 36.7899 30.6741 37.9323C30.5524 38.2179 30.4445 38.5103 30.3515 38.8083C30.0714 39.7047 29.9197 40.6558 29.9197 41.6411V55.9431C29.9197 58.4753 31.9929 60.5483 34.5252 60.5483H35.0282V74.3707C35.0282 76.9028 37.1013 78.9758 39.6337 78.9758H47.4181C47.6777 78.9758 47.9292 78.9403 48.1779 78.898C48.0536 78.2912 47.988 77.664 47.988 77.0203V75.166H47.9893Z" fill="#00F6BB"/>
<path d="M54.2227 25.5639C54.7898 26.1311 55.428 26.6216 56.1141 27.0439C57.6816 28.01 59.5211 28.5771 61.4986 28.5771C62.9199 28.5771 64.2729 28.2888 65.5042 27.7681C65.9853 27.5645 66.4431 27.3158 66.8832 27.0439C68.6953 25.9274 70.1426 24.2739 70.979 22.2939C71.4997 21.0626 71.788 19.7098 71.788 18.2886C71.788 15.4476 71.8614 15.3626 70 13.5C69.0694 12.5694 66.7356 11.5206 65.5042 11C64.0042 11 58.9213 11 57.5 11C53.2227 12.5 52.0183 13.5 51.2092 18.2886C51.2092 19.7098 51.4976 21.0626 52.0183 22.2939C52.539 23.5251 53.292 24.6333 54.2227 25.5639ZM61.4986 14.5C65.0232 14.5 67.8904 14.7643 67.8904 18.2886C67.8904 21.8128 65.0232 24.6798 61.4986 24.6798C57.9741 24.6798 55.1069 21.8128 55.1069 18.2886C55.1069 14.7643 57.9741 14.5 61.4986 14.5Z" fill="#FCFCFC"/>
<path d="M76.2063 57.102V41.6425C76.2063 37.7383 74.0101 34.3207 70.7917 32.5674C69.3294 31.7707 67.6553 31.3157 65.88 31.3157H57.1199C51.4402 31.3157 46.7922 35.9619 46.7922 41.6425V57.102C46.7922 59.8405 49.0322 62.0802 51.7709 62.0802H52.3134V77.0218C52.3134 79.7603 54.5534 82 57.2921 82H65.7065C66.3912 82 67.0444 81.8607 67.6389 81.6078C69.4237 80.8494 70.6838 79.0757 70.6838 77.0232V62.0802H71.2263C72.5957 62.0802 73.8407 61.5199 74.7427 60.618C75.646 59.7148 76.2063 58.4712 76.2063 57.102ZM72.3087 57.102C72.3087 57.6882 71.814 58.1829 71.2277 58.1829H70.6851H66.7875V62.0802V77.0218C66.7875 77.608 66.2928 78.1027 65.7065 78.1027H57.2921C56.7058 78.1027 56.2111 77.608 56.2111 77.0218V62.0802V58.1829H52.3134H51.7709C51.1846 58.1829 50.6899 57.6882 50.6899 57.102V41.6425C50.6899 38.0977 53.5749 35.213 57.1199 35.213H65.88C69.4251 35.213 72.3101 38.0977 72.3101 41.6425V57.102H72.3087Z" fill="#FCFCFC"/>
<path fill-rule="evenodd" clip-rule="evenodd" d="M58.1984 9.351e-05C57.2195 0.0099052 56.4033 0.461502 55.8106 1.11773C55.2178 1.77405 54.8114 2.629 54.5197 3.52948C54.2932 4.22861 54.1403 4.95862 54.0347 5.65446C53.3095 6.09504 52.4858 6.57342 51.8633 7.2868C51.2047 8.04149 50.8162 9.09684 51.0873 10.4485C51.4703 12.3617 52.9389 13.767 54.848 14.6691C56.7572 15.5712 59.1298 16.0042 61.504 16C63.8781 15.9957 66.2529 15.5584 68.1599 14.6544C70.0668 13.7504 71.5329 12.3466 71.9132 10.4485C72.183 9.09672 71.796 8.04144 71.1371 7.2868C70.5147 6.57378 69.6907 6.0949 68.9658 5.65446C68.86 4.95845 68.7074 4.22881 68.4807 3.52948C68.1889 2.62903 67.7827 1.77403 67.1898 1.11773C66.5971 0.461513 65.781 0.00991696 64.8021 9.351e-05C64.0257 -0.00802407 63.5151 0.515275 63.1381 0.941262C62.7613 1.36707 62.4495 1.70933 62.1979 1.77949C61.7719 1.89433 61.2898 1.92617 60.81 1.77949C60.8075 1.77947 60.8051 1.77947 60.8026 1.77949C60.5524 1.70984 60.2399 1.36741 59.8624 0.941262C59.4851 0.515188 58.9748 -0.00803348 58.1984 9.351e-05H58.1984ZM65.9959 2.58831C66.0445 2.59095 66.0923 2.60087 66.1377 2.61772C66.7806 2.82595 67.0487 3.43519 67.1973 3.97065C67.3459 4.5061 67.3743 5.03128 67.3615 5.3677C67.3675 5.43402 67.3592 5.50086 67.3371 5.56378C67.315 5.62671 67.2795 5.68429 67.2332 5.73273C67.1868 5.78116 67.1305 5.81934 67.068 5.84474C67.0056 5.87015 66.9383 5.88221 66.8708 5.88012C66.8032 5.87802 66.7369 5.86183 66.6762 5.8326C66.6155 5.80336 66.5617 5.76175 66.5186 5.71054C66.4754 5.65933 66.4437 5.59966 66.4256 5.53549C66.4076 5.47132 66.4035 5.40411 66.4138 5.33829C66.4224 5.11098 66.3918 4.61797 66.2795 4.2133C66.1672 3.80862 65.9748 3.55867 65.8393 3.51477C65.7211 3.4876 65.6178 3.41711 65.5505 3.31762C65.4831 3.21813 65.4568 3.0971 65.4767 2.97913C65.4967 2.86117 65.5614 2.75511 65.6579 2.68252C65.7543 2.60992 65.8752 2.57624 65.9959 2.58831V2.58831ZM54.8779 6.62504C59.1997 9.12781 63.6937 9.17115 68.13 6.66181C68.1971 7.35736 68.2134 7.97036 68.1972 8.40445C68.1948 8.4673 68.0639 8.71744 67.6898 8.99268C67.3157 9.2679 66.7486 9.55816 66.0631 9.81621C64.6937 10.3317 62.8623 10.7139 61.1309 10.7353C59.4015 10.7139 57.7702 10.339 56.5941 9.83091C56.0054 9.57656 55.5336 9.2824 55.2286 9.01473C54.9235 8.74708 54.8148 8.52076 54.8107 8.41179C54.8107 8.40936 54.8107 8.40693 54.8107 8.4045C54.7938 7.96386 54.8083 7.33419 54.8779 6.6251V6.62504Z" fill="#FCFCFC"/>
</svg>
