<svg width="123" height="80" viewBox="0 0 123 80" fill="none" xmlns="http://www.w3.org/2000/svg">
<path d="M109.187 31.5649C109.939 31.7986 110.737 31.9243 111.565 31.9243C112.393 31.9243 113.192 31.7986 113.943 31.5649C114.695 31.3313 115.399 30.9896 116.037 30.5592C116.333 30.3583 116.611 30.1315 116.879 29.8937C118.523 28.4288 119.564 26.3025 119.564 23.9274C119.564 23.0993 119.438 22.3013 119.205 21.5497C119.049 21.0495 118.845 20.5699 118.599 20.1162C118.476 19.8894 118.342 19.6694 118.199 19.4575C117.48 18.3944 116.513 17.513 115.38 16.8967C114.247 16.2817 112.948 15.9319 111.568 15.9319C110.318 15.9319 109.14 16.2271 108.086 16.7382C108.429 17.7248 108.66 18.7634 108.754 19.8415C109.555 19.2881 110.523 18.9601 111.568 18.9601C114.308 18.9601 116.537 21.1889 116.537 23.9274C116.537 26.666 114.308 28.8961 111.568 28.8961C109.86 28.8961 108.35 28.0284 107.456 26.7111C107.008 27.613 106.47 28.4616 105.834 29.2296C106.886 29.8158 107.851 30.5401 108.697 31.3846C108.858 31.4474 109.019 31.513 109.187 31.5649Z" fill="url(#paint0_linear)"/>
<path d="M114.97 34.0534H110.741C111.292 34.9949 111.725 36.0102 112.026 37.0829H114.97C117.725 37.0829 119.967 39.3254 119.967 42.0803V54.0962C119.967 54.5512 119.582 54.9366 119.127 54.9366H118.706H115.678V57.9648V69.5789C115.678 70.0339 115.292 70.4193 114.837 70.4193H108.296C108.145 70.4193 108.008 70.3646 107.884 70.2908C107.882 71.354 107.676 72.368 107.317 73.3054C107.631 73.3887 107.956 73.4475 108.296 73.4475H114.837C115.902 73.4475 116.869 73.0116 117.57 72.3106C118.271 71.6095 118.707 70.642 118.707 69.5775V57.9634H119.13C121.258 57.9634 123 56.2225 123 54.0948V42.079C123 40.6988 122.647 39.3978 122.027 38.2609C120.662 35.7602 118.005 34.0534 114.97 34.0534Z" fill="url(#paint1_linear)"/>
<path d="M92.0661 28.7308C93.21 29.2897 94.4905 29.6122 95.849 29.6122C96.1469 29.6122 96.4421 29.5971 96.7318 29.5671C97.3126 29.5083 97.8757 29.3921 98.4169 29.2227C98.958 29.0546 99.476 28.8346 99.9653 28.5681C100.418 28.3222 100.843 28.0338 101.242 27.7141C102.138 26.9966 102.891 26.107 103.443 25.0917C103.71 24.6025 103.93 24.0846 104.098 23.5434C104.266 23.0023 104.382 22.4393 104.442 21.8585C104.472 21.5688 104.487 21.2736 104.487 20.9757C104.487 19.4849 104.11 18.0828 103.445 16.8598C102.647 15.3908 101.436 14.18 99.9666 13.382C99.4774 13.1155 98.9594 12.8955 98.4182 12.7274C97.877 12.5593 97.314 12.4432 96.7332 12.383C96.4434 12.353 96.1483 12.3379 95.8503 12.3379C94.6135 12.3379 93.4396 12.603 92.3763 13.0704C92.7768 14.1062 93.0583 15.1994 93.1977 16.3391C93.9835 15.8882 94.8814 15.6094 95.8503 15.6094C98.8091 15.6094 101.216 18.0158 101.216 20.9744C101.216 23.9329 98.8091 26.3393 95.8503 26.3393C94.1981 26.3393 92.7371 25.5727 91.7518 24.3961C91.2297 25.4005 90.5847 26.3298 89.8426 27.1715C89.9437 27.2699 90.049 27.3629 90.1556 27.4558C90.8293 27.8261 91.4634 28.2579 92.0661 28.7308Z" fill="url(#paint2_linear)"/>
<path d="M108.194 53.5564V40.5785C108.194 40.2806 108.179 39.9854 108.149 39.6957C107.911 37.3726 106.745 35.3119 105.031 33.8962C103.531 32.6568 101.611 31.9106 99.5253 31.9106H95.0386C95.7151 32.915 96.2522 34.0165 96.6499 35.1821H99.5253C102.502 35.1821 104.923 37.6036 104.923 40.5785V53.5564C104.923 54.0483 104.508 54.4638 104.016 54.4638H103.56H100.288V57.7352V70.2772C100.288 70.7691 99.8724 71.1845 99.3804 71.1845H92.3163C92.3067 71.1845 92.2985 71.1791 92.2889 71.1791V72.3707C92.2889 73.0799 92.1974 73.7659 92.0402 74.4287C92.1332 74.4355 92.222 74.456 92.3163 74.456H99.3791C99.6661 74.456 99.9476 74.4273 100.218 74.3713C100.761 74.2592 101.266 74.0419 101.711 73.7399C102.823 72.987 103.557 71.7134 103.557 70.2772V57.7352H104.013C104.876 57.7352 105.678 57.4715 106.346 57.0192C107.46 56.2662 108.194 54.9926 108.194 53.5564Z" fill="url(#paint3_linear)"/>
<path d="M79.4698 12.1248C82.7306 12.1248 85.3832 14.7772 85.3832 18.0377C85.3832 21.2982 82.7306 23.9507 79.4698 23.9507C77.6754 23.9507 76.086 23.1307 75.0009 21.8653C74.5157 23.0337 73.8761 24.1187 73.119 25.1122C73.406 25.3705 73.7067 25.6137 74.0237 25.8365C74.3162 26.0414 74.6169 26.2355 74.9325 26.4063C75.2018 26.5525 75.4806 26.6864 75.7648 26.8067C76.9032 27.2877 78.1551 27.5542 79.4698 27.5542C80.7845 27.5542 82.0363 27.2877 83.1747 26.8067C83.459 26.6864 83.7364 26.5525 84.007 26.4063C84.3227 26.2355 84.6234 26.0414 84.9158 25.8365C86.1239 24.9906 87.1311 23.8769 87.8391 22.5746C88.5716 21.2258 88.9884 19.6803 88.9884 18.0377C88.9884 12.7807 84.7272 8.51987 79.4698 8.51987C77.6904 8.51987 76.03 9.01728 74.6046 9.86726C75.1526 10.981 75.5749 12.1671 75.825 13.4175C76.8322 12.6208 78.0881 12.1248 79.4698 12.1248Z" fill="url(#paint4_linear)"/>
<path d="M92.2861 56.5135C92.7836 55.7783 93.0761 54.8928 93.0761 53.9431V39.6411C93.0761 38.3278 92.8068 37.0734 92.3217 35.9323C91.8365 34.7899 91.1354 33.7609 90.269 32.8945C90.0531 32.6786 89.8262 32.4723 89.5898 32.2769C87.9361 30.9117 85.8206 30.0891 83.5219 30.0891H76.9621C77.8927 31.1659 78.6676 32.378 79.2553 33.694H83.5219C86.8018 33.694 89.4709 36.3628 89.4709 39.6411V53.9431C89.4709 54.4856 89.0131 54.9434 88.4705 54.9434H87.9676H84.3624V58.5483V72.3707C84.3624 72.9132 83.9046 73.371 83.362 73.371H75.5777C75.3631 73.371 75.1731 73.2849 75.0078 73.166V75.0217C75.0078 75.6654 74.9422 76.2926 74.8178 76.8993C75.0665 76.9417 75.318 76.9772 75.5777 76.9772H83.362C83.9948 76.9772 84.6002 76.8474 85.1496 76.6137C86.8005 75.9127 87.9662 74.2715 87.9662 72.372V58.5483H88.4691C89.4189 58.5483 90.3045 58.2572 91.0398 57.7584C91.5304 57.4277 91.9541 57.0027 92.2861 56.5135Z" fill="url(#paint5_linear)"/>
<path d="M11.432 31.9243C12.446 31.9243 13.4109 31.7276 14.3033 31.3846C15.1492 30.5401 16.1141 29.8172 17.1664 29.2296C16.5295 28.4616 15.9925 27.613 15.5442 26.7111C14.6504 28.0284 13.1403 28.8961 11.432 28.8961C8.69189 28.8961 6.46428 26.6673 6.46428 23.9274C6.46428 21.1876 8.69326 18.9601 11.432 18.9601C12.4775 18.9601 13.4451 19.2881 14.2459 19.8415C14.3402 18.7634 14.5712 17.7248 14.9142 16.7382C13.8605 16.2271 12.6811 15.9319 11.4306 15.9319C8.67003 15.9319 6.23605 17.3299 4.79972 19.4575C4.65622 19.6707 4.52229 19.8907 4.39929 20.1162C4.1533 20.5699 3.94967 21.0495 3.79387 21.5497C3.56018 22.3013 3.43445 23.0993 3.43445 23.9274C3.43445 26.3025 4.47582 28.4288 6.11852 29.8937C6.19505 29.9607 6.26612 30.0344 6.34401 30.0987C7.72705 31.2397 9.49957 31.9243 11.432 31.9243Z" fill="url(#paint6_linear)"/>
<path d="M14.7023 70.4193H8.16155C7.70646 70.4193 7.32107 70.0339 7.32107 69.5789V57.9648V54.9366H4.29124H3.86894C3.41385 54.9366 3.02846 54.5512 3.02846 54.0962V42.0803C3.02846 39.3254 5.27111 37.0829 8.02625 37.0829H10.97C11.2706 36.0102 11.7039 34.9963 12.2546 34.0534H8.02625C4.99095 34.0534 2.33558 35.7602 0.971678 38.2623C0.352592 39.3992 0 40.7001 0 42.0803V54.0962C0 55.1607 0.435956 56.1268 1.13704 56.8292C1.83812 57.5302 2.8057 57.9662 3.87031 57.9662H4.29124V69.5802C4.29124 70.6448 4.72719 71.6123 5.42828 72.3133C6.12936 73.0143 7.09694 73.4502 8.16155 73.4502H14.7023C15.0426 73.4502 15.3678 73.3915 15.6821 73.3081C15.3227 72.3693 15.1177 71.3554 15.115 70.2936C14.9906 70.366 14.854 70.4193 14.7023 70.4193Z" fill="url(#paint7_linear)"/>
<path d="M18.9006 23.5435C19.0687 24.0846 19.2888 24.6025 19.5553 25.0917C20.1074 26.1084 20.8604 26.9967 21.7569 27.7141C22.156 28.0338 22.581 28.3222 23.0333 28.5682C24.2565 29.2323 25.66 29.6108 27.1496 29.6108C28.5081 29.6108 29.7886 29.2883 30.9325 28.7294C31.5338 28.258 32.1693 27.8248 32.8444 27.4558C32.9496 27.3629 33.0562 27.27 33.1574 27.1716C32.4139 26.3298 31.7702 25.4006 31.2482 24.3962C30.2628 25.5741 28.8019 26.3407 27.1496 26.3407C24.1909 26.3407 21.7842 23.9343 21.7842 20.9758C21.7842 18.0172 24.1909 15.6108 27.1496 15.6108C28.1186 15.6108 29.0165 15.8896 29.8023 16.3405C29.943 15.2022 30.2232 14.109 30.6236 13.0718C29.5604 12.6031 28.3865 12.3393 27.1496 12.3393C22.3801 12.3393 18.5125 16.2052 18.5125 20.9758C18.5125 21.2737 18.5275 21.5688 18.5576 21.8585C18.615 22.4393 18.7312 23.0037 18.9006 23.5435Z" fill="url(#paint8_linear)"/>
<path d="M30.7069 71.1804C30.6973 71.1804 30.6905 71.1858 30.6809 71.1858H23.6168C23.1248 71.1858 22.7093 70.7704 22.7093 70.2785V57.7365V54.4651H19.4376H18.9811C18.4892 54.4651 18.0737 54.0496 18.0737 53.5577V40.5798C18.0737 37.6035 20.4954 35.1834 23.4705 35.1834H26.3473C26.745 34.0178 27.2821 32.9164 27.9586 31.912H23.4719C19.0016 31.912 15.294 35.3406 14.8484 39.697C14.8184 39.9881 14.8033 40.2819 14.8033 40.5798V53.5577C14.8033 55.8562 16.6838 57.7365 18.9825 57.7365H19.439V70.2785C19.439 72.0017 20.4967 73.4912 21.9959 74.128C22.4948 74.3398 23.0442 74.4573 23.6181 74.4573H30.6809C30.7752 74.4573 30.864 74.4354 30.9556 74.43C30.7984 73.7686 30.7069 73.0812 30.7069 72.372V71.1804Z" fill="url(#paint9_linear)"/>
<path d="M38.0812 25.8365C38.3737 26.0415 38.6743 26.2355 38.99 26.4063C39.2592 26.5526 39.538 26.6865 39.8223 26.8067C40.9607 27.2878 42.2125 27.5542 43.5272 27.5542C44.8419 27.5542 46.0938 27.2878 47.2322 26.8067C47.5165 26.6865 47.7939 26.5526 48.0645 26.4063C48.3802 26.2355 48.6808 26.0415 48.9733 25.8365C49.2903 25.6138 49.591 25.3705 49.878 25.1123C49.1222 24.1188 48.4813 23.0338 47.9961 21.864C46.911 23.1294 45.3203 23.9493 43.5259 23.9493C40.2651 23.9493 37.6124 21.2969 37.6124 18.0364C37.6124 14.7759 40.2651 12.1234 43.5259 12.1234C44.9075 12.1234 46.1635 12.6195 47.1707 13.4162C47.4208 12.1658 47.8431 10.9797 48.3911 9.86595C46.9657 9.01597 45.3066 8.51855 43.5259 8.51855C38.2684 8.51855 34.0073 12.7794 34.0073 18.0364C34.0073 19.679 34.4227 21.2245 35.1566 22.5732C35.8659 23.8769 36.8731 24.992 38.0812 25.8365Z" fill="url(#paint10_linear)"/>
<path d="M47.9893 73.166C47.824 73.2862 47.634 73.371 47.4194 73.371H39.6351C39.0925 73.371 38.6347 72.9132 38.6347 72.3707V58.5483V54.9434H35.0295H34.5266C33.9841 54.9434 33.5262 54.4856 33.5262 53.9431V39.6411C33.5262 36.3614 36.1953 33.694 39.4752 33.694H43.7418C44.3295 32.378 45.1057 31.1659 46.035 30.0891H39.4738C37.1751 30.0891 35.0596 30.9117 33.406 32.2769C33.1695 32.4723 32.9427 32.6786 32.7267 32.8945C31.8617 33.7595 31.1592 34.7899 30.6741 35.9323C30.5524 36.2179 30.4445 36.5104 30.3515 36.8083C30.0714 37.7047 29.9197 38.6558 29.9197 39.6411V53.9431C29.9197 56.4753 31.9929 58.5483 34.5252 58.5483H35.0282V72.3707C35.0282 74.9028 37.1013 76.9759 39.6337 76.9759H47.4181C47.6777 76.9759 47.9292 76.9403 48.1779 76.898C48.0536 76.2912 47.988 75.664 47.988 75.0204V73.166H47.9893Z" fill="url(#paint11_linear)"/>
<path d="M54.2226 23.5639C54.7897 24.131 55.428 24.6216 56.114 25.0439C57.6816 26.01 59.521 26.5771 61.4986 26.5771C62.9199 26.5771 64.2728 26.2888 65.5042 25.7681C65.9852 25.5645 66.443 25.3158 66.8831 25.0439C68.6953 23.9274 70.1425 22.2739 70.9789 20.2938C71.4996 19.0626 71.788 17.7097 71.788 16.2886C71.788 13.4476 71.8613 13.8626 69.9999 12C69.0692 11.0694 67.2313 11.5206 65.9999 11C64.4999 11 61.9212 11.5 60.4999 11.5C54.8175 11.5 51.2092 10.6066 51.2092 16.2886C51.2092 17.7097 51.4975 19.0626 52.0182 20.2938C52.5389 21.5251 53.2919 22.6333 54.2226 23.5639ZM60.9999 14.5C64.5245 14.5 67.8903 12.7643 67.8903 16.2886C67.8903 19.8128 65.0231 22.6798 61.4986 22.6798C57.974 22.6798 55.1068 19.8128 55.1068 16.2886C55.1068 12.7643 57.4754 14.5 60.9999 14.5Z" fill="url(#paint12_linear)"/>
<path d="M76.2063 55.1019V39.6425C76.2063 35.7383 74.0101 32.3206 70.7917 30.5674C69.3294 29.7707 67.6553 29.3156 65.88 29.3156H57.1199C51.4402 29.3156 46.7922 33.9618 46.7922 39.6425V55.1019C46.7922 57.8405 49.0322 60.0802 51.7709 60.0802H52.3134V75.0218C52.3134 77.7603 54.5534 80 57.2921 80H65.7065C66.3912 80 67.0444 79.8606 67.6389 79.6078C69.4237 78.8494 70.6838 77.0756 70.6838 75.0231V60.0802H71.2263C72.5957 60.0802 73.8407 59.5199 74.7427 58.618C75.646 57.7147 76.2063 56.4712 76.2063 55.1019ZM72.3087 55.1019C72.3087 55.6882 71.814 56.1829 71.2277 56.1829H70.6851H66.7875V60.0802V75.0218C66.7875 75.608 66.2928 76.1027 65.7065 76.1027H57.2921C56.7058 76.1027 56.2111 75.608 56.2111 75.0218V60.0802V56.1829H52.3134H51.7709C51.1846 56.1829 50.6899 55.6882 50.6899 55.1019V39.6425C50.6899 36.0977 53.5749 33.213 57.1199 33.213H65.88C69.4251 33.213 72.3101 36.0977 72.3101 39.6425V55.1019H72.3087Z" fill="url(#paint13_linear)"/>
<path fill-rule="evenodd" clip-rule="evenodd" d="M58.1983 9.351e-05C57.2194 0.0099052 56.4032 0.461502 55.8105 1.11773C55.2177 1.77405 54.8114 2.629 54.5197 3.52948C54.2932 4.22861 54.1402 4.95862 54.0346 5.65446C53.3095 6.09504 52.4857 6.57342 51.8633 7.2868C51.2047 8.04149 50.8161 9.09684 51.0872 10.4485C51.4702 12.3617 52.9389 13.767 54.848 14.6691C56.7571 15.5712 59.1297 16.0042 61.5039 16C63.878 15.9957 66.2528 15.5584 68.1598 14.6544C70.0667 13.7504 71.5328 12.3466 71.9131 10.4485C72.183 9.09672 71.7959 8.04144 71.1371 7.2868C70.5146 6.57378 69.6906 6.0949 68.9657 5.65446C68.8599 4.95845 68.7074 4.22881 68.4807 3.52948C68.1888 2.62903 67.7826 1.77403 67.1898 1.11773C66.5971 0.461513 65.7809 0.00991696 64.802 9.351e-05C64.0256 -0.00802407 63.515 0.515275 63.138 0.941262C62.7612 1.36707 62.4494 1.70933 62.1978 1.77949C61.7718 1.89433 61.2898 1.92617 60.8099 1.77949C60.8075 1.77947 60.805 1.77947 60.8025 1.77949C60.5524 1.70984 60.2398 1.36741 59.8624 0.941262C59.485 0.515188 58.9747 -0.00803348 58.1984 9.351e-05H58.1983ZM65.9959 2.58831C66.0444 2.59095 66.0922 2.60087 66.1377 2.61772C66.7806 2.82595 67.0487 3.43519 67.1972 3.97065C67.3458 4.5061 67.3742 5.03128 67.3614 5.3677C67.3674 5.43402 67.3591 5.50086 67.337 5.56378C67.3149 5.62671 67.2795 5.68429 67.2331 5.73273C67.1867 5.78116 67.1304 5.81934 67.068 5.84474C67.0055 5.87015 66.9383 5.88221 66.8707 5.88012C66.8032 5.87802 66.7369 5.86183 66.6761 5.8326C66.6154 5.80336 66.5617 5.76175 66.5185 5.71054C66.4753 5.65933 66.4436 5.59966 66.4256 5.53549C66.4075 5.47132 66.4035 5.40411 66.4137 5.33829C66.4223 5.11098 66.3918 4.61797 66.2795 4.2133C66.1671 3.80862 65.9747 3.55867 65.8392 3.51477C65.721 3.4876 65.6178 3.41711 65.5504 3.31762C65.4831 3.21813 65.4567 3.0971 65.4766 2.97913C65.4966 2.86117 65.5614 2.75511 65.6578 2.68252C65.7543 2.60992 65.8751 2.57624 65.9959 2.58831V2.58831ZM54.8778 6.62504C59.1996 9.12781 63.6937 9.17115 68.13 6.66181C68.1971 7.35736 68.2133 7.97036 68.1971 8.40445C68.1947 8.4673 68.0639 8.71744 67.6897 8.99268C67.3156 9.2679 66.7485 9.55816 66.0631 9.81621C64.6937 10.3317 62.8622 10.7139 61.1308 10.7353C59.4015 10.7139 57.7702 10.339 56.594 9.83091C56.0053 9.57656 55.5336 9.2824 55.2285 9.01473C54.9235 8.74708 54.8147 8.52076 54.8107 8.41179C54.8107 8.40936 54.8107 8.40693 54.8107 8.4045C54.7937 7.96386 54.8083 7.33419 54.8778 6.6251V6.62504Z" fill="url(#paint14_linear)"/>
<defs>
<linearGradient id="paint0_linear" x1="112.699" y1="15.9319" x2="112.699" y2="31.9243" gradientUnits="userSpaceOnUse">
<stop stop-color="#00F6BB"/>
<stop offset="1" stop-color="#101010"/>
</linearGradient>
<linearGradient id="paint1_linear" x1="115.158" y1="34.0534" x2="115.158" y2="73.4475" gradientUnits="userSpaceOnUse">
<stop stop-color="#00F6BB"/>
<stop offset="1" stop-color="#101010"/>
</linearGradient>
<linearGradient id="paint2_linear" x1="97.165" y1="12.3379" x2="97.165" y2="29.6122" gradientUnits="userSpaceOnUse">
<stop stop-color="#00F6BB"/>
<stop offset="1" stop-color="#101010"/>
</linearGradient>
<linearGradient id="paint3_linear" x1="100.117" y1="31.9106" x2="100.117" y2="74.456" gradientUnits="userSpaceOnUse">
<stop stop-color="#00F6BB"/>
<stop offset="1" stop-color="#101010"/>
</linearGradient>
<linearGradient id="paint4_linear" x1="81.0537" y1="8.51987" x2="81.0537" y2="27.5542" gradientUnits="userSpaceOnUse">
<stop stop-color="#00F6BB"/>
<stop offset="1" stop-color="#101010"/>
</linearGradient>
<linearGradient id="paint5_linear" x1="83.9469" y1="30.0891" x2="83.9469" y2="76.9772" gradientUnits="userSpaceOnUse">
<stop stop-color="#00F6BB"/>
<stop offset="1" stop-color="#101010"/>
</linearGradient>
<linearGradient id="paint6_linear" x1="10.3004" y1="15.9319" x2="10.3004" y2="31.9243" gradientUnits="userSpaceOnUse">
<stop stop-color="#00F6BB"/>
<stop offset="1" stop-color="#101010"/>
</linearGradient>
<linearGradient id="paint7_linear" x1="7.84107" y1="34.0534" x2="7.84107" y2="73.4502" gradientUnits="userSpaceOnUse">
<stop stop-color="#00F6BB"/>
<stop offset="1" stop-color="#101010"/>
</linearGradient>
<linearGradient id="paint8_linear" x1="25.8349" y1="12.3393" x2="25.8349" y2="29.6108" gradientUnits="userSpaceOnUse">
<stop stop-color="#00F6BB"/>
<stop offset="1" stop-color="#101010"/>
</linearGradient>
<linearGradient id="paint9_linear" x1="22.8795" y1="31.912" x2="22.8795" y2="74.4573" gradientUnits="userSpaceOnUse">
<stop stop-color="#00F6BB"/>
<stop offset="1" stop-color="#101010"/>
</linearGradient>
<linearGradient id="paint10_linear" x1="41.9426" y1="8.51855" x2="41.9426" y2="27.5542" gradientUnits="userSpaceOnUse">
<stop stop-color="#00F6BB"/>
<stop offset="1" stop-color="#101010"/>
</linearGradient>
<linearGradient id="paint11_linear" x1="39.0488" y1="30.0891" x2="39.0488" y2="76.9759" gradientUnits="userSpaceOnUse">
<stop stop-color="#00F6BB"/>
<stop offset="1" stop-color="#101010"/>
</linearGradient>
<linearGradient id="paint12_linear" x1="61.4988" y1="11" x2="61.4988" y2="26.5771" gradientUnits="userSpaceOnUse">
<stop stop-color="#ED303B"/>
<stop offset="1" stop-color="#101010"/>
</linearGradient>
<linearGradient id="paint13_linear" x1="61.4993" y1="29.3156" x2="61.4993" y2="80" gradientUnits="userSpaceOnUse">
<stop stop-color="#ED303B"/>
<stop offset="1" stop-color="#101010"/>
</linearGradient>
<linearGradient id="paint14_linear" x1="61.4999" y1="0" x2="61.4999" y2="16" gradientUnits="userSpaceOnUse">
<stop stop-color="#ED303B"/>
<stop offset="1" stop-color="#101010"/>
</linearGradient>
</defs>
</svg>
