<svg width="1440" height="2560" viewBox="0 0 1440 2560" fill="none" xmlns="http://www.w3.org/2000/svg">
<rect width="360" height="640" fill="white" transform="scale(4)"/>
<rect width="1440" height="2560" fill="url(#paint0_linear)"/>
<g filter="url(#filter0_d)">
<rect x="180" y="1192" width="1080" height="172" rx="2" fill="white"/>
</g>
<path d="M572.92 1285.86H567.6L558.92 1260.72H558.584L558.36 1296H553.656L554.832 1257.08H561.776L570.064 1282.22H570.344L578.576 1257.08H585.52L586.808 1296H582.104L581.768 1260.72H581.488L572.92 1285.86ZM621.357 1263.41H626.005V1296H622.869L622.309 1292.86H622.029C621.992 1292.86 621.413 1293.18 620.293 1293.82C619.21 1294.41 618.314 1294.88 617.605 1295.22C615.328 1296.22 613.181 1296.73 611.165 1296.73C605.714 1296.73 602.989 1292.85 602.989 1285.08V1263.41H607.637V1283.46C607.637 1287.75 607.88 1290.33 608.365 1291.18C608.888 1292.01 610.101 1292.42 612.005 1292.42C613.946 1292.42 617.064 1291.43 621.357 1289.45V1263.41ZM646.927 1253.83V1296H642.279L642.559 1278.02L642.279 1253.83H646.927ZM646.983 1278.42L659.975 1263.41H665.967L652.135 1278.14V1278.42L666.975 1296H660.927L646.983 1278.42ZM693.558 1267.94C690.609 1267.12 687.827 1266.71 685.214 1266.71C682.601 1266.71 680.921 1266.99 680.174 1267.55C679.427 1268.11 679.054 1269.19 679.054 1270.8C679.054 1272.22 679.315 1273.21 679.838 1273.77C680.398 1274.29 680.827 1274.68 681.126 1274.94C681.425 1275.21 681.929 1275.49 682.638 1275.78C683.347 1276.05 683.87 1276.23 684.206 1276.34C685.587 1276.75 686.838 1277.11 687.958 1277.41C690.459 1278.12 692.401 1279.13 693.782 1280.43C695.163 1281.74 695.854 1283.87 695.854 1286.82C695.854 1289.73 694.921 1292.12 693.054 1293.98C691.225 1295.81 688.63 1296.73 685.27 1296.73C683.627 1296.73 681.91 1296.5 680.118 1296.06C678.363 1295.61 676.534 1294.94 674.63 1294.04L675.806 1290.06C679.203 1291.82 682.638 1292.7 686.11 1292.7C687.79 1292.7 688.985 1292.4 689.694 1291.8C690.777 1290.87 691.318 1289.41 691.318 1287.43C691.318 1284.97 690.179 1283.23 687.902 1282.22C687.006 1281.81 685.755 1281.38 684.15 1280.94C682.545 1280.45 681.443 1280.11 680.846 1279.93C680.286 1279.74 679.521 1279.41 678.55 1278.92C677.617 1278.4 676.926 1277.86 676.478 1277.3C675.283 1275.8 674.686 1273.88 674.686 1271.53C674.686 1265.63 678.233 1262.68 685.326 1262.68C688.611 1262.68 691.598 1263.13 694.286 1264.02L693.558 1267.94ZM748.427 1274.44C748.427 1277.73 747.363 1280.39 745.235 1282.45C743.144 1284.46 740.269 1285.47 736.611 1285.47C736.237 1287.67 736.051 1288.85 736.051 1289C736.051 1289.11 736.443 1289.34 737.227 1289.67C738.048 1290.01 738.571 1290.21 738.795 1290.29C739.915 1290.77 740.68 1291.11 741.091 1291.3C744.115 1292.57 746.205 1293.82 747.363 1295.05C748.557 1296.28 749.155 1297.57 749.155 1298.91C749.155 1301.15 748.053 1302.89 745.851 1304.12C743.648 1305.39 740.717 1306.02 737.059 1306.02C735.267 1306.02 733.475 1305.89 731.683 1305.63C729.891 1305.41 728.099 1305.03 726.307 1304.51L726.867 1300.31C732.243 1301.25 736.219 1301.71 738.795 1301.71C741.408 1301.71 743.088 1301.54 743.835 1301.21C744.581 1300.91 744.955 1300.37 744.955 1299.58C744.955 1298.8 744.525 1298.11 743.667 1297.51C742.472 1296.69 740.064 1295.55 736.443 1294.1C732.859 1292.6 731.067 1291.76 731.067 1291.58L733.699 1285.14C731.16 1284.54 729.163 1283.29 727.707 1281.38C726.251 1279.48 725.523 1277.22 725.523 1274.61C725.523 1270.35 726.699 1267.31 729.051 1265.48C731.44 1263.61 734.557 1262.68 738.403 1262.68C740.68 1262.68 744.619 1262.9 750.219 1263.35V1266.32L746.523 1266.88C747.792 1269.68 748.427 1272.2 748.427 1274.44ZM737.507 1266.82C734.781 1266.82 732.859 1267.35 731.739 1268.39C730.619 1269.4 730.059 1271.3 730.059 1274.1C730.059 1276.9 730.563 1278.81 731.571 1279.82C732.616 1280.82 734.408 1281.33 736.947 1281.33C739.523 1281.33 741.333 1280.84 742.379 1279.87C743.424 1278.86 743.947 1277.02 743.947 1274.33C743.947 1271.71 743.797 1269.9 743.499 1268.9C743.2 1267.85 742.976 1267.29 742.827 1267.22C742.603 1267.03 740.829 1266.9 737.507 1266.82ZM773.598 1275.95H779.534C779.534 1271.58 779.198 1268.95 778.526 1268.06C777.891 1267.16 776.696 1266.71 774.942 1266.71C773.187 1266.71 771.32 1266.95 769.342 1267.44C767.4 1267.89 765.31 1268.58 763.07 1269.51L761.446 1265.87C761.931 1265.65 762.566 1265.37 763.35 1265.03C764.171 1264.66 765.683 1264.17 767.886 1263.58C770.088 1262.98 772.104 1262.68 773.934 1262.68C780.766 1262.68 784.182 1266.64 784.182 1274.55V1296H781.158L780.486 1292.58H780.15C779.776 1292.88 779.254 1293.27 778.582 1293.76C777.91 1294.21 776.64 1294.82 774.774 1295.61C772.907 1296.35 771.152 1296.73 769.51 1296.73C766.859 1296.73 764.731 1295.83 763.126 1294.04C761.52 1292.21 760.718 1289.54 760.718 1286.03C760.718 1282.49 761.819 1279.93 764.022 1278.36C766.224 1276.75 769.416 1275.95 773.598 1275.95ZM779.534 1280.26C777.928 1280 775.651 1279.87 772.702 1279.87C769.79 1279.87 767.923 1280.23 767.102 1280.94C766.094 1281.72 765.59 1283.38 765.59 1285.92C765.59 1288.42 765.944 1290.16 766.654 1291.13C767.4 1292.1 768.502 1292.58 769.958 1292.58C771.451 1292.58 772.963 1292.34 774.494 1291.86C776.024 1291.33 777.704 1290.57 779.534 1289.56V1280.26ZM814.946 1267.1C812.482 1267.1 809.309 1268.07 805.426 1270.02V1296H800.778V1263.41H803.914L804.418 1266.6H804.698C809.066 1263.99 812.762 1262.68 815.786 1262.68C817.391 1262.68 818.773 1263.05 819.93 1263.8C821.087 1264.55 821.927 1265.57 822.45 1266.88C823.869 1266.02 825.026 1265.35 825.922 1264.86C826.818 1264.38 828.013 1263.89 829.506 1263.41C831.037 1262.92 832.474 1262.68 833.818 1262.68C836.693 1262.68 838.69 1263.69 839.81 1265.7C840.967 1267.68 841.546 1270.63 841.546 1274.55V1296H836.898V1276.12C836.898 1271.83 836.618 1269.25 836.058 1268.39C835.535 1267.53 834.49 1267.1 832.922 1267.1C830.234 1267.1 827.023 1268.17 823.29 1270.3C823.439 1271.94 823.514 1273.28 823.514 1274.33V1296H818.866V1275.95C818.866 1273.56 818.81 1271.85 818.698 1270.8C818.586 1269.75 818.287 1268.88 817.802 1268.17C817.354 1267.46 816.402 1267.1 814.946 1267.1ZM868.985 1296.73C860.324 1296.73 855.993 1291.05 855.993 1279.7C855.993 1268.35 860.287 1262.68 868.873 1262.68C872.681 1262.68 875.537 1263.87 877.441 1266.26C879.345 1268.62 880.297 1272.54 880.297 1278.02V1281.5H860.921C860.921 1286.54 861.724 1289.8 863.329 1291.3C864.337 1292.19 865.719 1292.64 867.473 1292.64C870.609 1292.64 873.689 1292.12 876.713 1291.07L878.225 1290.51L879.401 1294.32C876.265 1295.93 872.793 1296.73 868.985 1296.73ZM874.249 1268.39C873.503 1267.27 871.673 1266.71 868.761 1266.71C865.849 1266.71 863.815 1267.48 862.657 1269.01C861.5 1270.54 860.921 1273.47 860.921 1277.8L875.537 1277.52C875.537 1272.85 875.108 1269.81 874.249 1268.39Z" fill="#161616"/>
<path d="M399.56 1100V1049.96H424.112V1055.36L405.608 1055.14L405.248 1071.99H422.384V1077.1H405.248L405.608 1094.74L424.112 1094.6V1100H399.56ZM449.432 1100H443.456V1058.1H447.488L448.136 1062.2H448.496C454.256 1058.84 459.248 1057.16 463.472 1057.16C467.264 1057.16 469.88 1058.62 471.32 1061.55C472.52 1064 473.12 1067.53 473.12 1072.14V1100H467.072V1074.22C467.072 1068.75 466.712 1065.49 465.992 1064.43C465.32 1063.38 464.024 1062.85 462.104 1062.85C458.456 1062.85 454.232 1064.12 449.432 1066.66V1100ZM500.595 1060.54H508.947V1065.37H500.595V1087.11C500.595 1091.14 500.787 1093.57 501.171 1094.38C501.603 1095.2 502.875 1095.61 504.987 1095.61L508.875 1095.46V1100.29C507.867 1100.53 506.523 1100.65 504.843 1100.65C501.387 1100.65 498.819 1099.71 497.139 1097.84C495.459 1095.92 494.619 1092.2 494.619 1086.68V1065.22H489.867V1061.48L494.835 1060.47L496.419 1050.68H500.595V1060.54ZM541.797 1100.94C530.661 1100.94 525.093 1093.64 525.093 1079.05C525.093 1064.46 530.613 1057.16 541.653 1057.16C546.549 1057.16 550.221 1058.7 552.669 1061.77C555.117 1064.79 556.341 1069.83 556.341 1076.89V1081.35H531.429C531.429 1087.83 532.461 1092.03 534.525 1093.95C535.821 1095.1 537.597 1095.68 539.853 1095.68C543.885 1095.68 547.845 1095.01 551.733 1093.66L553.677 1092.94L555.189 1097.84C551.157 1099.9 546.693 1100.94 541.797 1100.94ZM548.565 1064.5C547.605 1063.06 545.253 1062.34 541.509 1062.34C537.765 1062.34 535.149 1063.33 533.661 1065.3C532.173 1067.26 531.429 1071.03 531.429 1076.6L550.221 1076.24C550.221 1070.24 549.669 1066.33 548.565 1064.5ZM594.741 1063.28C593.637 1063.18 592.437 1063.14 591.141 1063.14C589.893 1063.14 588.261 1063.52 586.245 1064.29C584.229 1065.06 582.645 1065.9 581.493 1066.81V1100H575.517V1058.1H579.333L580.125 1062.34H580.557C582.525 1060.9 584.613 1059.68 586.821 1058.67C589.029 1057.66 590.853 1057.16 592.293 1057.16L595.245 1057.52L594.741 1063.28ZM660.055 1072.28C660.055 1076.5 658.687 1079.94 655.951 1082.58C653.263 1085.17 649.567 1086.46 644.863 1086.46C644.383 1089.3 644.143 1090.81 644.143 1091C644.143 1091.14 644.647 1091.43 645.655 1091.86C646.711 1092.3 647.383 1092.56 647.671 1092.66C649.111 1093.28 650.095 1093.71 650.623 1093.95C654.511 1095.58 657.199 1097.19 658.687 1098.78C660.223 1100.36 660.991 1102.02 660.991 1103.74C660.991 1106.62 659.575 1108.86 656.743 1110.44C653.911 1112.07 650.143 1112.89 645.439 1112.89C643.135 1112.89 640.831 1112.72 638.527 1112.38C636.223 1112.1 633.919 1111.62 631.615 1110.94L632.335 1105.54C639.247 1106.74 644.359 1107.34 647.671 1107.34C651.031 1107.34 653.191 1107.13 654.151 1106.7C655.111 1106.31 655.591 1105.62 655.591 1104.61C655.591 1103.6 655.039 1102.71 653.935 1101.94C652.399 1100.89 649.303 1099.42 644.647 1097.55C640.039 1095.63 637.735 1094.55 637.735 1094.31L641.119 1086.03C637.855 1085.26 635.287 1083.66 633.415 1081.21C631.543 1078.76 630.607 1075.86 630.607 1072.5C630.607 1067.02 632.119 1063.11 635.143 1060.76C638.215 1058.36 642.223 1057.16 647.167 1057.16C650.095 1057.16 655.159 1057.45 662.359 1058.02V1061.84L657.607 1062.56C659.239 1066.16 660.055 1069.4 660.055 1072.28ZM646.015 1062.49C642.511 1062.49 640.039 1063.16 638.599 1064.5C637.159 1065.8 636.439 1068.25 636.439 1071.85C636.439 1075.45 637.087 1077.9 638.383 1079.19C639.727 1080.49 642.031 1081.14 645.295 1081.14C648.607 1081.14 650.935 1080.51 652.279 1079.26C653.623 1077.97 654.295 1075.59 654.295 1072.14C654.295 1068.78 654.103 1066.45 653.719 1065.15C653.335 1063.81 653.047 1063.09 652.855 1062.99C652.567 1062.75 650.287 1062.58 646.015 1062.49ZM692.418 1074.22H700.05C700.05 1068.61 699.618 1065.22 698.754 1064.07C697.938 1062.92 696.402 1062.34 694.146 1062.34C691.89 1062.34 689.49 1062.66 686.946 1063.28C684.45 1063.86 681.762 1064.74 678.882 1065.94L676.794 1061.26C677.418 1060.98 678.234 1060.62 679.242 1060.18C680.298 1059.7 682.242 1059.08 685.074 1058.31C687.906 1057.54 690.498 1057.16 692.85 1057.16C701.634 1057.16 706.026 1062.25 706.026 1072.42V1100H702.138L701.274 1095.61H700.842C700.362 1095.99 699.69 1096.5 698.826 1097.12C697.962 1097.7 696.33 1098.49 693.93 1099.5C691.53 1100.46 689.274 1100.94 687.162 1100.94C683.754 1100.94 681.018 1099.78 678.954 1097.48C676.89 1095.13 675.858 1091.7 675.858 1087.18C675.858 1082.62 677.274 1079.34 680.106 1077.32C682.938 1075.26 687.042 1074.22 692.418 1074.22ZM700.05 1079.77C697.986 1079.43 695.058 1079.26 691.266 1079.26C687.522 1079.26 685.122 1079.72 684.066 1080.63C682.77 1081.64 682.122 1083.78 682.122 1087.04C682.122 1090.26 682.578 1092.49 683.49 1093.74C684.45 1094.98 685.866 1095.61 687.738 1095.61C689.658 1095.61 691.602 1095.3 693.57 1094.67C695.538 1094 697.698 1093.02 700.05 1091.72V1079.77ZM745.58 1062.85C742.412 1062.85 738.332 1064.1 733.34 1066.59V1100H727.364V1058.1H731.396L732.044 1062.2H732.404C738.02 1058.84 742.772 1057.16 746.66 1057.16C748.724 1057.16 750.5 1057.64 751.988 1058.6C753.476 1059.56 754.556 1060.88 755.228 1062.56C757.052 1061.46 758.54 1060.59 759.692 1059.97C760.844 1059.34 762.38 1058.72 764.3 1058.1C766.268 1057.47 768.116 1057.16 769.844 1057.16C773.54 1057.16 776.108 1058.46 777.548 1061.05C779.036 1063.59 779.78 1067.38 779.78 1072.42V1100H773.804V1074.44C773.804 1068.92 773.444 1065.61 772.724 1064.5C772.052 1063.4 770.708 1062.85 768.692 1062.85C765.236 1062.85 761.108 1064.22 756.308 1066.95C756.5 1069.06 756.596 1070.79 756.596 1072.14V1100H750.62V1074.22C750.62 1071.15 750.548 1068.94 750.404 1067.6C750.26 1066.26 749.876 1065.13 749.252 1064.22C748.676 1063.3 747.452 1062.85 745.58 1062.85ZM815.06 1100.94C803.924 1100.94 798.356 1093.64 798.356 1079.05C798.356 1064.46 803.876 1057.16 814.916 1057.16C819.812 1057.16 823.484 1058.7 825.932 1061.77C828.38 1064.79 829.604 1069.83 829.604 1076.89V1081.35H804.692C804.692 1087.83 805.724 1092.03 807.788 1093.95C809.084 1095.1 810.86 1095.68 813.116 1095.68C817.148 1095.68 821.108 1095.01 824.996 1093.66L826.94 1092.94L828.452 1097.84C824.42 1099.9 819.956 1100.94 815.06 1100.94ZM821.828 1064.5C820.868 1063.06 818.516 1062.34 814.772 1062.34C811.028 1062.34 808.412 1063.33 806.924 1065.3C805.436 1067.26 804.692 1071.03 804.692 1076.6L823.484 1076.24C823.484 1070.24 822.932 1066.33 821.828 1064.5ZM878.128 1100H872.152V1058.1H876.184L876.832 1062.2H877.192C882.952 1058.84 887.944 1057.16 892.168 1057.16C895.96 1057.16 898.576 1058.62 900.016 1061.55C901.216 1064 901.816 1067.53 901.816 1072.14V1100H895.768V1074.22C895.768 1068.75 895.408 1065.49 894.688 1064.43C894.016 1063.38 892.72 1062.85 890.8 1062.85C887.152 1062.85 882.928 1064.12 878.128 1066.66V1100ZM935.77 1074.22H943.402C943.402 1068.61 942.97 1065.22 942.106 1064.07C941.29 1062.92 939.754 1062.34 937.498 1062.34C935.242 1062.34 932.842 1062.66 930.298 1063.28C927.802 1063.86 925.114 1064.74 922.234 1065.94L920.146 1061.26C920.77 1060.98 921.586 1060.62 922.594 1060.18C923.65 1059.7 925.594 1059.08 928.426 1058.31C931.258 1057.54 933.85 1057.16 936.202 1057.16C944.986 1057.16 949.378 1062.25 949.378 1072.42V1100H945.49L944.626 1095.61H944.194C943.714 1095.99 943.042 1096.5 942.178 1097.12C941.314 1097.7 939.682 1098.49 937.282 1099.5C934.882 1100.46 932.626 1100.94 930.514 1100.94C927.106 1100.94 924.37 1099.78 922.306 1097.48C920.242 1095.13 919.21 1091.7 919.21 1087.18C919.21 1082.62 920.626 1079.34 923.458 1077.32C926.29 1075.26 930.394 1074.22 935.77 1074.22ZM943.402 1079.77C941.338 1079.43 938.41 1079.26 934.618 1079.26C930.874 1079.26 928.474 1079.72 927.418 1080.63C926.122 1081.64 925.474 1083.78 925.474 1087.04C925.474 1090.26 925.93 1092.49 926.842 1093.74C927.802 1094.98 929.218 1095.61 931.09 1095.61C933.01 1095.61 934.954 1095.3 936.922 1094.67C938.89 1094 941.05 1093.02 943.402 1091.72V1079.77ZM988.932 1062.85C985.764 1062.85 981.684 1064.1 976.692 1066.59V1100H970.716V1058.1H974.748L975.396 1062.2H975.756C981.372 1058.84 986.124 1057.16 990.012 1057.16C992.076 1057.16 993.852 1057.64 995.34 1058.6C996.828 1059.56 997.908 1060.88 998.58 1062.56C1000.4 1061.46 1001.89 1060.59 1003.04 1059.97C1004.2 1059.34 1005.73 1058.72 1007.65 1058.1C1009.62 1057.47 1011.47 1057.16 1013.2 1057.16C1016.89 1057.16 1019.46 1058.46 1020.9 1061.05C1022.39 1063.59 1023.13 1067.38 1023.13 1072.42V1100H1017.16V1074.44C1017.16 1068.92 1016.8 1065.61 1016.08 1064.5C1015.4 1063.4 1014.06 1062.85 1012.04 1062.85C1008.59 1062.85 1004.46 1064.22 999.66 1066.95C999.852 1069.06 999.948 1070.79 999.948 1072.14V1100H993.972V1074.22C993.972 1071.15 993.9 1068.94 993.756 1067.6C993.612 1066.26 993.228 1065.13 992.604 1064.22C992.028 1063.3 990.804 1062.85 988.932 1062.85ZM1058.41 1100.94C1047.28 1100.94 1041.71 1093.64 1041.71 1079.05C1041.71 1064.46 1047.23 1057.16 1058.27 1057.16C1063.16 1057.16 1066.84 1058.7 1069.28 1061.77C1071.73 1064.79 1072.96 1069.83 1072.96 1076.89V1081.35H1048.04C1048.04 1087.83 1049.08 1092.03 1051.14 1093.95C1052.44 1095.1 1054.21 1095.68 1056.47 1095.68C1060.5 1095.68 1064.46 1095.01 1068.35 1093.66L1070.29 1092.94L1071.8 1097.84C1067.77 1099.9 1063.31 1100.94 1058.41 1100.94ZM1065.18 1064.5C1064.22 1063.06 1061.87 1062.34 1058.12 1062.34C1054.38 1062.34 1051.76 1063.33 1050.28 1065.3C1048.79 1067.26 1048.04 1071.03 1048.04 1076.6L1066.84 1076.24C1066.84 1070.24 1066.28 1066.33 1065.18 1064.5Z" fill="url(#paint1_linear)"/>
<g filter="url(#filter1_d)">
<circle cx="720" cy="1604" r="116" fill="#00FFC2"/>
</g>
<path d="M680.48 1605.44C680.48 1599.04 681.525 1594.2 683.616 1590.91C685.749 1587.58 689.333 1585.92 694.368 1585.92C699.445 1585.92 703.051 1587.58 705.184 1590.91C707.317 1594.2 708.384 1599.02 708.384 1605.38C708.384 1611.73 707.317 1616.58 705.184 1619.9C703.051 1623.19 699.445 1624.83 694.368 1624.83C689.333 1624.83 685.749 1623.19 683.616 1619.9C681.525 1616.62 680.48 1611.8 680.48 1605.44ZM699.552 1591.62C698.443 1590.89 696.736 1590.53 694.432 1590.53C692.128 1590.53 690.4 1590.89 689.248 1591.62C688.139 1592.34 687.285 1593.77 686.688 1595.9C686.133 1597.99 685.856 1601.15 685.856 1605.38C685.856 1609.6 686.133 1612.78 686.688 1614.91C687.243 1617.05 688.096 1618.47 689.248 1619.2C690.4 1619.93 692.128 1620.29 694.432 1620.29C696.736 1620.29 698.443 1619.93 699.552 1619.2C700.704 1618.47 701.557 1617.05 702.112 1614.91C702.667 1612.78 702.944 1609.6 702.944 1605.38C702.944 1601.15 702.667 1597.99 702.112 1595.9C701.557 1593.77 700.704 1592.34 699.552 1591.62ZM730.347 1575.81V1624H725.035L725.355 1603.46L725.035 1575.81H730.347ZM730.411 1603.9L745.259 1586.75H752.107L736.299 1603.58V1603.9L753.259 1624H746.347L730.411 1603.9Z" fill="black"/>
<path d="M908.749 594.26C911.756 595.194 914.948 595.697 918.261 595.697C921.574 595.697 924.766 595.194 927.773 594.26C930.78 593.325 933.595 591.959 936.148 590.237C937.334 589.433 938.444 588.526 939.515 587.575C946.091 581.715 950.257 573.21 950.257 563.71C950.257 560.397 949.754 557.205 948.819 554.199C948.196 552.198 947.381 550.28 946.397 548.465C945.905 547.557 945.37 546.677 944.796 545.83C941.92 541.578 938.05 538.052 933.518 535.587C928.987 533.127 923.793 531.728 918.272 531.728C913.27 531.728 908.558 532.908 904.343 534.953C905.715 538.899 906.639 543.053 907.016 547.366C910.22 545.152 914.09 543.841 918.272 543.841C929.232 543.841 938.148 552.756 938.148 563.71C938.148 574.664 929.232 583.585 918.272 583.585C911.439 583.585 905.398 580.114 901.823 574.844C900.03 578.452 897.882 581.846 895.334 584.918C899.544 587.263 903.403 590.16 906.787 593.538C907.432 593.79 908.077 594.052 908.749 594.26Z" fill="#00F6BB"/>
<path d="M931.879 604.213H914.965C917.168 607.98 918.901 612.041 920.104 616.332H931.879C942.899 616.332 951.87 625.302 951.87 636.321V684.385C951.87 686.205 950.328 687.746 948.508 687.746H946.824H934.71V699.859V746.315C934.71 748.136 933.169 749.677 931.348 749.677H905.186C904.579 749.677 904.032 749.459 903.535 749.163C903.529 753.416 902.704 757.472 901.266 761.222C902.523 761.555 903.824 761.79 905.186 761.79H931.348C935.607 761.79 939.477 760.046 942.282 757.242C945.086 754.438 946.83 750.568 946.83 746.31V699.854H948.519C957.03 699.854 964 692.89 964 684.379V636.316C964 630.795 962.59 625.591 960.108 621.044C954.647 611.041 944.02 604.213 931.879 604.213Z" fill="#00F6BB"/>
<path d="M840.264 582.923C844.84 585.159 849.962 586.449 855.396 586.449C856.587 586.449 857.768 586.389 858.927 586.268C861.25 586.033 863.503 585.569 865.667 584.891C867.832 584.218 869.904 583.338 871.861 582.273C873.67 581.289 875.37 580.135 876.967 578.856C880.553 575.987 883.565 572.428 885.773 568.367C886.839 566.41 887.719 564.338 888.392 562.174C889.064 560.009 889.529 557.757 889.769 555.434C889.89 554.275 889.95 553.095 889.95 551.903C889.95 545.939 888.441 540.331 885.779 535.439C882.586 529.563 877.743 524.72 871.866 521.528C869.909 520.462 867.838 519.582 865.673 518.91C863.508 518.237 861.256 517.773 858.933 517.532C857.774 517.412 856.593 517.352 855.401 517.352C850.454 517.352 845.758 518.412 841.505 520.282C843.107 524.425 844.233 528.798 844.791 533.356C847.934 531.553 851.525 530.438 855.401 530.438C867.236 530.438 876.863 540.063 876.863 551.897C876.863 563.732 867.236 573.357 855.401 573.357C848.792 573.357 842.948 570.291 839.007 565.585C836.919 569.602 834.339 573.319 831.37 576.686C831.775 577.08 832.196 577.451 832.622 577.823C835.317 579.304 837.854 581.032 840.264 582.923Z" fill="#00F6BB"/>
<path d="M904.775 682.226V630.314C904.775 629.122 904.715 627.942 904.595 626.783C903.644 617.491 898.981 609.248 892.126 603.585C886.124 598.627 878.443 595.643 870.101 595.643H852.154C854.86 599.66 857.009 604.066 858.6 608.728H870.101C882.007 608.728 891.694 618.414 891.694 630.314V682.226C891.694 684.193 890.032 685.855 888.064 685.855H886.238H873.151V698.941V749.109C873.151 751.076 871.49 752.738 869.522 752.738H841.265C841.227 752.738 841.194 752.716 841.156 752.716V757.483C841.156 760.32 840.79 763.064 840.161 765.715C840.533 765.742 840.888 765.824 841.265 765.824H869.516C870.664 765.824 871.79 765.709 872.873 765.485C875.043 765.037 877.066 764.168 878.842 762.96C883.292 759.948 886.227 754.854 886.227 749.109V698.941H888.053C891.503 698.941 894.712 697.886 897.385 696.077C901.84 693.065 904.775 687.97 904.775 682.226Z" fill="#00F6BB"/>
<path d="M789.879 516.499C802.922 516.499 813.533 527.109 813.533 540.151C813.533 553.193 802.922 563.803 789.879 563.803C782.702 563.803 776.344 560.523 772.004 555.461C770.063 560.135 767.505 564.475 764.476 568.449C765.624 569.482 766.827 570.455 768.095 571.346C769.265 572.166 770.467 572.942 771.73 573.625C772.807 574.21 773.922 574.746 775.059 575.227C779.613 577.151 784.62 578.217 789.879 578.217C795.138 578.217 800.145 577.151 804.699 575.227C805.836 574.746 806.946 574.21 808.028 573.625C809.291 572.942 810.493 572.166 811.663 571.346C816.496 567.962 820.525 563.507 823.356 558.298C826.286 552.903 827.954 546.721 827.954 540.151C827.954 519.123 810.909 502.079 789.879 502.079C782.762 502.079 776.12 504.069 770.418 507.469C772.61 511.924 774.299 516.668 775.3 521.67C779.329 518.483 784.352 516.499 789.879 516.499Z" fill="#00F6BB"/>
<path d="M841.145 694.054C843.135 691.113 844.304 687.571 844.304 683.772V626.564C844.304 621.311 843.227 616.293 841.287 611.729C839.346 607.16 836.542 603.044 833.076 599.578C832.212 598.715 831.305 597.889 830.359 597.107C823.745 591.647 815.282 588.356 806.088 588.356H779.848C783.571 592.664 786.671 597.512 789.021 602.776H806.088C819.207 602.776 829.884 613.451 829.884 626.564V683.772C829.884 685.942 828.052 687.774 825.882 687.774H823.87H809.45V702.193V757.483C809.45 759.653 807.618 761.484 805.448 761.484H774.311C773.453 761.484 772.693 761.139 772.031 760.664V768.087C772.031 770.661 771.769 773.17 771.271 775.597C772.266 775.767 773.272 775.909 774.311 775.909H805.448C807.979 775.909 810.401 775.39 812.598 774.455C819.202 771.651 823.865 765.086 823.865 757.488V702.193H825.877C829.676 702.193 833.218 701.029 836.159 699.034C838.122 697.711 839.816 696.011 841.145 694.054Z" fill="#00F6BB"/>
<path d="M517.728 595.697C521.784 595.697 525.644 594.91 529.213 593.538C532.597 590.16 536.456 587.269 540.666 584.918C538.118 581.846 535.97 578.452 534.177 574.844C530.602 580.114 524.561 583.585 517.728 583.585C506.768 583.585 497.857 574.669 497.857 563.71C497.857 552.75 506.773 543.841 517.728 543.841C521.91 543.841 525.78 545.152 528.984 547.366C529.361 543.053 530.285 538.899 531.657 534.953C527.442 532.908 522.725 531.728 517.723 531.728C506.68 531.728 496.944 537.319 491.199 545.83C490.625 546.683 490.089 547.563 489.597 548.465C488.613 550.28 487.799 552.198 487.176 554.199C486.241 557.205 485.738 560.397 485.738 563.71C485.738 573.21 489.903 581.715 496.474 587.575C496.78 587.843 497.065 588.138 497.376 588.395C502.908 592.959 509.998 595.697 517.728 595.697Z" fill="#00F6BB"/>
<path d="M530.809 749.677H504.646C502.826 749.677 501.284 748.136 501.284 746.315V699.859V687.746H489.165H487.476C485.655 687.746 484.114 686.205 484.114 684.385V636.321C484.114 625.302 493.084 616.332 504.105 616.332H515.88C517.083 612.041 518.815 607.985 521.018 604.213H504.105C491.964 604.213 481.342 611.041 475.887 621.049C473.41 625.597 472 630.801 472 636.321V684.385C472 688.643 473.744 692.507 476.548 695.317C479.352 698.121 483.223 699.865 487.481 699.865H489.165V746.321C489.165 750.579 490.909 754.449 493.713 757.253C496.517 760.057 500.388 761.801 504.646 761.801H530.809C532.17 761.801 533.471 761.566 534.729 761.232C533.291 757.477 532.471 753.421 532.46 749.174C531.962 749.464 531.416 749.677 530.809 749.677Z" fill="#00F6BB"/>
<path d="M547.603 562.174C548.275 564.338 549.155 566.41 550.221 568.367C552.43 572.434 555.442 575.987 559.028 578.856C560.624 580.135 562.324 581.289 564.133 582.273C569.026 584.929 574.64 586.443 580.599 586.443C586.032 586.443 591.155 585.153 595.73 582.918C598.135 581.032 600.677 579.299 603.378 577.823C603.799 577.452 604.225 577.08 604.63 576.686C601.656 573.319 599.081 569.602 596.993 565.585C593.051 570.296 587.208 573.363 580.599 573.363C568.764 573.363 559.137 563.737 559.137 551.903C559.137 540.069 568.764 530.443 580.599 530.443C584.474 530.443 588.066 531.558 591.209 533.362C591.772 528.809 592.893 524.436 594.495 520.287C590.242 518.412 585.546 517.357 580.599 517.357C561.52 517.357 546.05 532.821 546.05 551.903C546.05 553.095 546.11 554.275 546.231 555.434C546.46 557.757 546.925 560.015 547.603 562.174Z" fill="#00F6BB" fill-opacity="0.9"/>
<path d="M594.828 752.722C594.789 752.722 594.762 752.743 594.724 752.743H566.467C564.499 752.743 562.837 751.082 562.837 749.114V698.946V685.86H549.75H547.925C545.957 685.86 544.295 684.199 544.295 682.231V630.319C544.295 618.414 553.982 608.734 565.882 608.734H577.389C578.98 604.071 581.128 599.665 583.834 595.648H565.888C548.007 595.648 533.176 609.362 531.394 626.788C531.274 627.952 531.213 629.128 531.213 630.319V682.231C531.213 691.425 538.735 698.946 547.93 698.946H549.756V749.114C549.756 756.007 553.987 761.965 559.984 764.512C561.979 765.359 564.177 765.829 566.473 765.829H594.724C595.101 765.829 595.456 765.742 595.822 765.72C595.194 763.074 594.828 760.325 594.828 757.488V752.722Z" fill="#00F6BB" fill-opacity="0.9"/>
<path d="M624.325 571.346C625.495 572.166 626.697 572.942 627.96 573.625C629.037 574.21 630.152 574.746 631.289 575.227C635.843 577.151 640.85 578.217 646.109 578.217C651.368 578.217 656.375 577.151 660.929 575.227C662.066 574.746 663.176 574.21 664.258 573.625C665.521 572.942 666.723 572.166 667.893 571.346C669.161 570.455 670.364 569.482 671.512 568.449C668.489 564.475 665.925 560.135 663.985 555.456C659.644 560.518 653.281 563.797 646.104 563.797C633.06 563.797 622.45 553.188 622.45 540.146C622.45 527.103 633.06 516.494 646.104 516.494C651.63 516.494 656.654 518.478 660.683 521.665C661.683 516.663 663.372 511.919 665.565 507.464C659.863 504.064 653.227 502.074 646.104 502.074C625.074 502.074 608.029 519.118 608.029 540.146C608.029 546.716 609.691 552.898 612.627 558.293C615.464 563.508 619.493 567.968 624.325 571.346Z" fill="#00F6BB"/>
<path d="M663.957 760.664C663.296 761.145 662.536 761.484 661.678 761.484H630.54C628.37 761.484 626.539 759.653 626.539 757.483V702.193V687.774H612.118H610.106C607.936 687.774 606.105 685.942 606.105 683.772V626.564C606.105 613.446 616.781 602.776 629.901 602.776H646.967C649.318 597.512 652.423 592.664 656.14 588.356H629.895C620.701 588.356 612.238 591.647 605.624 597.107C604.678 597.889 603.771 598.715 602.907 599.578C599.447 603.038 596.637 607.16 594.696 611.729C594.21 612.872 593.778 614.041 593.406 615.233C592.285 618.819 591.679 622.623 591.679 626.564V683.772C591.679 693.901 599.971 702.193 610.101 702.193H612.113V757.483C612.113 767.611 620.405 775.903 630.535 775.903H661.672C662.711 775.903 663.717 775.761 664.712 775.592C664.214 773.165 663.952 770.656 663.952 768.081V760.664H663.957Z" fill="#00F6BB"/>
<path d="M688.891 562.256C691.159 564.524 693.712 566.486 696.456 568.176C702.726 572.04 710.084 574.308 717.994 574.308C723.68 574.308 729.091 573.155 734.017 571.073C735.941 570.258 737.772 569.263 739.533 568.176C746.781 563.71 752.57 557.096 755.916 549.175C757.999 544.25 759.152 538.839 759.152 533.154C759.152 521.79 759.445 523.45 752 516C748.277 512.278 740.925 514.083 736 512C730 512 719.685 514 714 514C691.27 514 676.837 510.426 676.837 533.154C676.837 538.839 677.99 544.25 680.073 549.175C682.156 554.1 685.168 558.533 688.891 562.256ZM716 526C730.098 526 743.561 519.057 743.561 533.154C743.561 547.251 732.093 558.719 717.994 558.719C703.896 558.719 692.427 547.251 692.427 533.154C692.427 519.057 701.902 526 716 526Z" fill="#FCFCFC"/>
<path d="M776.825 688.408V626.57C776.825 610.953 768.041 597.283 755.167 590.27C749.318 587.083 742.621 585.263 735.52 585.263H700.48C677.761 585.263 659.169 603.847 659.169 626.57V688.408C659.169 699.362 668.129 708.321 679.084 708.321H681.254V768.087C681.254 779.041 690.214 788 701.169 788H734.826C737.565 788 740.178 787.442 742.556 786.431C749.695 783.398 754.735 776.303 754.735 768.092V708.321H756.905C762.383 708.321 767.363 706.08 770.971 702.472C774.584 698.859 776.825 693.885 776.825 688.408ZM761.235 688.408C761.235 690.753 759.256 692.731 756.911 692.731H754.741H739.15V708.321V768.087C739.15 770.432 737.171 772.411 734.826 772.411H701.169C698.823 772.411 696.844 770.432 696.844 768.087V708.321V692.731H681.254H679.084C676.739 692.731 674.76 690.753 674.76 688.408V626.57C674.76 612.391 686.3 600.852 700.48 600.852H735.52C749.7 600.852 761.24 612.391 761.24 626.57V688.408H761.235Z" fill="#FCFCFC"/>
<path fill-rule="evenodd" clip-rule="evenodd" d="M704.793 468C700.878 468.04 697.613 469.846 695.242 472.471C692.871 475.096 691.245 478.516 690.079 482.118C689.173 484.914 688.561 487.834 688.139 490.618C685.238 492.38 681.943 494.294 679.453 497.147C676.819 500.166 675.265 504.387 676.349 509.794C677.881 517.447 683.755 523.068 691.392 526.676C699.028 530.285 708.519 532.017 718.016 532C727.512 531.983 737.011 530.234 744.639 526.618C752.267 523.002 758.131 517.387 759.652 509.794C760.732 504.387 759.184 500.166 756.548 497.147C754.058 494.295 750.763 492.38 747.863 490.618C747.44 487.834 746.829 484.915 745.923 482.118C744.755 478.516 743.131 475.096 740.759 472.471C738.388 469.846 735.124 468.04 731.208 468C728.103 467.968 726.06 470.061 724.552 471.765C723.045 473.468 721.798 474.837 720.791 475.118C719.087 475.577 717.159 475.705 715.24 475.118C715.23 475.118 715.22 475.118 715.21 475.118C714.209 474.839 712.959 473.47 711.45 471.765C709.94 470.061 707.899 467.968 704.794 468H704.793ZM735.984 478.353C736.178 478.364 736.369 478.403 736.551 478.471C739.122 479.304 740.195 481.741 740.789 483.883C741.383 486.024 741.497 488.125 741.446 489.471C741.47 489.736 741.437 490.003 741.348 490.255C741.26 490.507 741.118 490.737 740.932 490.931C740.747 491.125 740.522 491.277 740.272 491.379C740.022 491.481 739.753 491.529 739.483 491.52C739.213 491.512 738.947 491.447 738.705 491.33C738.462 491.213 738.247 491.047 738.074 490.842C737.901 490.637 737.774 490.399 737.702 490.142C737.63 489.885 737.614 489.616 737.655 489.353C737.689 488.444 737.567 486.472 737.118 484.853C736.669 483.234 735.899 482.235 735.357 482.059C734.884 481.95 734.471 481.668 734.202 481.27C733.932 480.873 733.827 480.388 733.907 479.917C733.986 479.445 734.245 479.02 734.631 478.73C735.017 478.44 735.501 478.305 735.984 478.353V478.353ZM691.511 494.5C708.799 504.511 726.775 504.685 744.52 494.647C744.788 497.429 744.853 499.881 744.789 501.618C744.779 501.869 744.255 502.87 742.759 503.971C741.262 505.072 738.994 506.233 736.252 507.265C730.775 509.327 723.449 510.856 716.523 510.941C709.606 510.856 703.081 509.356 698.376 507.324C696.021 506.306 694.134 505.13 692.914 504.059C691.694 502.988 691.259 502.083 691.243 501.647C691.243 501.637 691.243 501.628 691.243 501.618C691.175 499.855 691.233 497.337 691.511 494.5V494.5Z" fill="#FCFCFC"/>
<path d="M386.906 239.344H392.062L450.656 303.562L509.156 239.344H514.688L525.938 372H508.969L500.438 272.156L450.844 327.094H448.969L400.875 273L393.375 372H376.594L386.906 239.344ZM626.231 239.25H636.075L693.544 372H674.606L662.044 342.938H595.575L581.981 372H564.169L626.231 239.25ZM655.294 327.188L643.294 299.344C641.794 295.844 640.325 292.219 638.887 288.469L635.137 277.875C632.762 271 631.356 266.312 630.919 263.812H629.794C629.294 266.312 628.169 269.875 626.419 274.5C626.419 274.5 624.825 278.562 621.637 286.688C620.2 290.188 618.637 293.75 616.95 297.375L602.981 327.188H655.294ZM732.337 239.25H822.056V255H749.681V311.438H815.025V327.188H749.681V372H732.337V239.25ZM868.537 239.25H885.881V372H868.537V239.25ZM986.831 239.25H996.675L1054.14 372H1035.21L1022.64 342.938H956.175L942.581 372H924.769L986.831 239.25ZM1015.89 327.188L1003.89 299.344C1002.39 295.844 1000.92 292.219 999.487 288.469L995.737 277.875C993.362 271 991.956 266.312 991.519 263.812H990.394C989.894 266.312 988.769 269.875 987.019 274.5C987.019 274.5 985.425 278.562 982.237 286.688C980.8 290.188 979.237 293.75 977.55 297.375L963.581 327.188H1015.89Z" fill="url(#paint2_linear)"/>
<path opacity="0.5" d="M992.749 2126.26C995.756 2127.19 998.948 2127.7 1002.26 2127.7C1005.57 2127.7 1008.77 2127.19 1011.77 2126.26C1014.78 2125.33 1017.59 2123.96 1020.15 2122.24C1021.33 2121.43 1022.44 2120.53 1023.52 2119.57C1030.09 2113.72 1034.26 2105.21 1034.26 2095.71C1034.26 2092.4 1033.75 2089.21 1032.82 2086.2C1032.2 2084.2 1031.38 2082.28 1030.4 2080.46C1029.91 2079.56 1029.37 2078.68 1028.8 2077.83C1025.92 2073.58 1022.05 2070.05 1017.52 2067.59C1012.99 2065.13 1007.79 2063.73 1002.27 2063.73C997.27 2063.73 992.558 2064.91 988.343 2066.95C989.715 2070.9 990.639 2075.05 991.016 2079.37C994.22 2077.15 998.09 2075.84 1002.27 2075.84C1013.23 2075.84 1022.15 2084.76 1022.15 2095.71C1022.15 2106.66 1013.23 2115.58 1002.27 2115.58C995.439 2115.58 989.398 2112.11 985.823 2106.84C984.03 2110.45 981.882 2113.85 979.334 2116.92C983.544 2119.26 987.403 2122.16 990.787 2125.54C991.432 2125.79 992.077 2126.05 992.749 2126.26Z" fill="#00F6BB"/>
<path opacity="0.5" d="M1015.88 2136.21H998.965C1001.17 2139.98 1002.9 2144.04 1004.1 2148.33H1015.88C1026.9 2148.33 1035.87 2157.3 1035.87 2168.32V2216.38C1035.87 2218.2 1034.33 2219.75 1032.51 2219.75H1030.82H1018.71V2231.86V2278.32C1018.71 2280.14 1017.17 2281.68 1015.35 2281.68H989.186C988.579 2281.68 988.032 2281.46 987.535 2281.16C987.529 2285.42 986.704 2289.47 985.266 2293.22C986.523 2293.55 987.824 2293.79 989.186 2293.79H1015.35C1019.61 2293.79 1023.48 2292.05 1026.28 2289.24C1029.09 2286.44 1030.83 2282.57 1030.83 2278.31V2231.85H1032.52C1041.03 2231.85 1048 2224.89 1048 2216.38V2168.32C1048 2162.8 1046.59 2157.59 1044.11 2153.04C1038.65 2143.04 1028.02 2136.21 1015.88 2136.21Z" fill="#00F6BB"/>
<path opacity="0.7" d="M924.264 2114.92C928.84 2117.16 933.962 2118.45 939.396 2118.45C940.587 2118.45 941.768 2118.39 942.927 2118.27C945.25 2118.03 947.503 2117.57 949.667 2116.89C951.832 2116.22 953.904 2115.34 955.861 2114.27C957.67 2113.29 959.37 2112.14 960.967 2110.86C964.553 2107.99 967.565 2104.43 969.773 2100.37C970.839 2098.41 971.719 2096.34 972.392 2094.17C973.064 2092.01 973.529 2089.76 973.769 2087.43C973.89 2086.28 973.95 2085.09 973.95 2083.9C973.95 2077.94 972.441 2072.33 969.779 2067.44C966.586 2061.56 961.743 2056.72 955.866 2053.53C953.909 2052.46 951.838 2051.58 949.673 2050.91C947.508 2050.24 945.256 2049.77 942.933 2049.53C941.774 2049.41 940.593 2049.35 939.401 2049.35C934.454 2049.35 929.758 2050.41 925.505 2052.28C927.107 2056.42 928.233 2060.8 928.791 2065.36C931.934 2063.55 935.525 2062.44 939.401 2062.44C951.236 2062.44 960.863 2072.06 960.863 2083.9C960.863 2095.73 951.236 2105.36 939.401 2105.36C932.792 2105.36 926.948 2102.29 923.007 2097.58C920.919 2101.6 918.339 2105.32 915.37 2108.69C915.775 2109.08 916.196 2109.45 916.622 2109.82C919.317 2111.3 921.854 2113.03 924.264 2114.92Z" fill="#00F6BB"/>
<path opacity="0.7" d="M988.775 2214.23V2162.31C988.775 2161.12 988.715 2159.94 988.595 2158.78C987.644 2149.49 982.981 2141.25 976.126 2135.58C970.124 2130.63 962.443 2127.64 954.101 2127.64H936.154C938.86 2131.66 941.009 2136.07 942.6 2140.73H954.101C966.007 2140.73 975.694 2150.41 975.694 2162.31V2214.23C975.694 2216.19 974.032 2217.86 972.064 2217.86H970.238H957.151V2230.94V2281.11C957.151 2283.08 955.49 2284.74 953.522 2284.74H925.265C925.227 2284.74 925.194 2284.72 925.156 2284.72V2289.48C925.156 2292.32 924.79 2295.06 924.161 2297.71C924.533 2297.74 924.888 2297.82 925.265 2297.82H953.516C954.664 2297.82 955.79 2297.71 956.873 2297.49C959.043 2297.04 961.066 2296.17 962.842 2294.96C967.292 2291.95 970.227 2286.85 970.227 2281.11V2230.94H972.053C975.503 2230.94 978.712 2229.89 981.385 2228.08C985.84 2225.06 988.775 2219.97 988.775 2214.23Z" fill="#00F6BB"/>
<path opacity="0.9" d="M873.879 2048.5C886.922 2048.5 897.533 2059.11 897.533 2072.15C897.533 2085.19 886.922 2095.8 873.879 2095.8C866.702 2095.8 860.344 2092.52 856.004 2087.46C854.063 2092.13 851.505 2096.47 848.476 2100.45C849.624 2101.48 850.827 2102.45 852.095 2103.35C853.265 2104.17 854.467 2104.94 855.73 2105.63C856.807 2106.21 857.922 2106.75 859.059 2107.23C863.613 2109.15 868.62 2110.22 873.879 2110.22C879.138 2110.22 884.145 2109.15 888.699 2107.23C889.836 2106.75 890.946 2106.21 892.028 2105.63C893.291 2104.94 894.493 2104.17 895.663 2103.35C900.496 2099.96 904.525 2095.51 907.356 2090.3C910.286 2084.9 911.954 2078.72 911.954 2072.15C911.954 2051.12 894.909 2034.08 873.879 2034.08C866.762 2034.08 860.12 2036.07 854.418 2039.47C856.61 2043.92 858.299 2048.67 859.3 2053.67C863.329 2050.48 868.352 2048.5 873.879 2048.5Z" fill="#00F6BB"/>
<path opacity="0.9" d="M925.145 2226.05C927.135 2223.11 928.304 2219.57 928.304 2215.77V2158.56C928.304 2153.31 927.227 2148.29 925.287 2143.73C923.346 2139.16 920.542 2135.04 917.076 2131.58C916.212 2130.71 915.305 2129.89 914.359 2129.11C907.745 2123.65 899.282 2120.36 890.088 2120.36H863.848C867.571 2124.66 870.671 2129.51 873.021 2134.78H890.088C903.207 2134.78 913.884 2145.45 913.884 2158.56V2215.77C913.884 2217.94 912.052 2219.77 909.882 2219.77H907.87H893.45V2234.19V2289.48C893.45 2291.65 891.618 2293.48 889.448 2293.48H858.311C857.453 2293.48 856.693 2293.14 856.031 2292.66V2300.09C856.031 2302.66 855.769 2305.17 855.271 2307.6C856.266 2307.77 857.272 2307.91 858.311 2307.91H889.448C891.979 2307.91 894.401 2307.39 896.598 2306.45C903.202 2303.65 907.865 2297.09 907.865 2289.49V2234.19H909.877C913.676 2234.19 917.218 2233.03 920.159 2231.03C922.122 2229.71 923.816 2228.01 925.145 2226.05Z" fill="#00F6BB"/>
<path opacity="0.5" d="M601.728 2127.7C605.784 2127.7 609.644 2126.91 613.213 2125.54C616.597 2122.16 620.456 2119.27 624.666 2116.92C622.118 2113.85 619.97 2110.45 618.177 2106.84C614.602 2112.11 608.561 2115.58 601.728 2115.58C590.768 2115.58 581.857 2106.67 581.857 2095.71C581.857 2084.75 590.773 2075.84 601.728 2075.84C605.91 2075.84 609.78 2077.15 612.984 2079.37C613.361 2075.05 614.285 2070.9 615.657 2066.95C611.442 2064.91 606.725 2063.73 601.723 2063.73C590.68 2063.73 580.944 2069.32 575.199 2077.83C574.625 2078.68 574.089 2079.56 573.597 2080.46C572.613 2082.28 571.799 2084.2 571.176 2086.2C570.241 2089.21 569.738 2092.4 569.738 2095.71C569.738 2105.21 573.903 2113.72 580.474 2119.57C580.78 2119.84 581.065 2120.14 581.376 2120.39C586.908 2124.96 593.998 2127.7 601.728 2127.7Z" fill="#00F6BB"/>
<path opacity="0.5" d="M614.809 2281.68H588.646C586.826 2281.68 585.284 2280.14 585.284 2278.32V2231.86V2219.75H573.165H571.476C569.655 2219.75 568.114 2218.2 568.114 2216.38V2168.32C568.114 2157.3 577.084 2148.33 588.105 2148.33H599.88C601.083 2144.04 602.815 2139.99 605.018 2136.21H588.105C575.964 2136.21 565.342 2143.04 559.887 2153.05C557.41 2157.6 556 2162.8 556 2168.32V2216.38C556 2220.64 557.744 2224.51 560.548 2227.32C563.352 2230.12 567.223 2231.86 571.481 2231.86H573.165V2278.32C573.165 2282.58 574.909 2286.45 577.713 2289.25C580.517 2292.06 584.388 2293.8 588.646 2293.8H614.809C616.17 2293.8 617.471 2293.57 618.729 2293.23C617.291 2289.48 616.471 2285.42 616.46 2281.17C615.962 2281.46 615.416 2281.68 614.809 2281.68Z" fill="#00F6BB"/>
<path opacity="0.7" d="M631.603 2094.17C632.275 2096.34 633.155 2098.41 634.221 2100.37C636.43 2104.43 639.442 2107.99 643.028 2110.86C644.624 2112.14 646.324 2113.29 648.133 2114.27C653.026 2116.93 658.64 2118.44 664.599 2118.44C670.032 2118.44 675.155 2117.15 679.73 2114.92C682.135 2113.03 684.677 2111.3 687.378 2109.82C687.799 2109.45 688.225 2109.08 688.63 2108.69C685.656 2105.32 683.081 2101.6 680.993 2097.58C677.051 2102.3 671.208 2105.36 664.599 2105.36C652.764 2105.36 643.137 2095.74 643.137 2083.9C643.137 2072.07 652.764 2062.44 664.599 2062.44C668.474 2062.44 672.066 2063.56 675.209 2065.36C675.772 2060.81 676.893 2056.44 678.495 2052.29C674.242 2050.41 669.546 2049.36 664.599 2049.36C645.52 2049.36 630.05 2064.82 630.05 2083.9C630.05 2085.09 630.11 2086.28 630.231 2087.43C630.46 2089.76 630.925 2092.01 631.603 2094.17Z" fill="#00F6BB" fill-opacity="0.9"/>
<path opacity="0.7" d="M678.828 2284.72C678.789 2284.72 678.762 2284.74 678.724 2284.74H650.467C648.499 2284.74 646.837 2283.08 646.837 2281.11V2230.95V2217.86H633.75H631.925C629.957 2217.86 628.295 2216.2 628.295 2214.23V2162.32C628.295 2150.41 637.982 2140.73 649.882 2140.73H661.389C662.98 2136.07 665.128 2131.67 667.834 2127.65H649.888C632.007 2127.65 617.176 2141.36 615.394 2158.79C615.274 2159.95 615.213 2161.13 615.213 2162.32V2214.23C615.213 2223.42 622.735 2230.95 631.93 2230.95H633.756V2281.11C633.756 2288.01 637.987 2293.96 643.984 2296.51C645.979 2297.36 648.177 2297.83 650.473 2297.83H678.724C679.101 2297.83 679.456 2297.74 679.822 2297.72C679.194 2295.07 678.828 2292.32 678.828 2289.49V2284.72Z" fill="#00F6BB" fill-opacity="0.9"/>
<path opacity="0.9" d="M708.325 2103.35C709.495 2104.17 710.697 2104.94 711.96 2105.63C713.037 2106.21 714.152 2106.75 715.289 2107.23C719.843 2109.15 724.85 2110.22 730.109 2110.22C735.368 2110.22 740.375 2109.15 744.929 2107.23C746.066 2106.75 747.176 2106.21 748.258 2105.63C749.521 2104.94 750.723 2104.17 751.893 2103.35C753.161 2102.46 754.364 2101.48 755.512 2100.45C752.489 2096.48 749.925 2092.14 747.985 2087.46C743.644 2092.52 737.281 2095.8 730.104 2095.8C717.06 2095.8 706.45 2085.19 706.45 2072.15C706.45 2059.1 717.06 2048.49 730.104 2048.49C735.63 2048.49 740.654 2050.48 744.683 2053.66C745.683 2048.66 747.372 2043.92 749.565 2039.46C743.863 2036.06 737.227 2034.07 730.104 2034.07C709.074 2034.07 692.029 2051.12 692.029 2072.15C692.029 2078.72 693.691 2084.9 696.627 2090.29C699.464 2095.51 703.493 2099.97 708.325 2103.35Z" fill="#00F6BB"/>
<path opacity="0.9" d="M747.957 2292.66C747.296 2293.15 746.536 2293.48 745.678 2293.48H714.54C712.37 2293.48 710.539 2291.65 710.539 2289.48V2234.19V2219.77H696.118H694.106C691.936 2219.77 690.105 2217.94 690.105 2215.77V2158.56C690.105 2145.45 700.781 2134.78 713.901 2134.78H730.967C733.318 2129.51 736.423 2124.66 740.14 2120.36H713.895C704.701 2120.36 696.238 2123.65 689.624 2129.11C688.678 2129.89 687.771 2130.71 686.907 2131.58C683.447 2135.04 680.637 2139.16 678.696 2143.73C678.21 2144.87 677.778 2146.04 677.406 2147.23C676.285 2150.82 675.679 2154.62 675.679 2158.56V2215.77C675.679 2225.9 683.971 2234.19 694.101 2234.19H696.113V2289.48C696.113 2299.61 704.405 2307.9 714.535 2307.9H745.672C746.711 2307.9 747.717 2307.76 748.712 2307.59C748.214 2305.16 747.952 2302.66 747.952 2300.08V2292.66H747.957Z" fill="#00F6BB"/>
<path d="M772.891 2094.26C775.159 2096.52 777.712 2098.49 780.456 2100.18C786.726 2104.04 794.084 2106.31 801.994 2106.31C807.68 2106.31 813.091 2105.16 818.017 2103.07C819.941 2102.26 821.772 2101.26 823.533 2100.18C830.781 2095.71 836.57 2089.1 839.916 2081.18C841.999 2076.25 843.152 2070.84 843.152 2065.15C843.152 2053.79 843.445 2053.45 836 2046C832.277 2042.28 822.942 2038.08 818.017 2036C812.017 2036 791.685 2036 786 2036C768.891 2042 764.073 2046 760.837 2065.15C760.837 2070.84 761.99 2076.25 764.073 2081.18C766.156 2086.1 769.168 2090.53 772.891 2094.26ZM801.994 2050C816.093 2050 827.561 2051.06 827.561 2065.15C827.561 2079.25 816.093 2090.72 801.994 2090.72C787.896 2090.72 776.427 2079.25 776.427 2065.15C776.427 2051.06 787.896 2050 801.994 2050Z" fill="#FCFCFC"/>
<path d="M860.825 2220.41V2158.57C860.825 2142.95 852.041 2129.28 839.167 2122.27C833.318 2119.08 826.621 2117.26 819.52 2117.26H784.48C761.761 2117.26 743.169 2135.85 743.169 2158.57V2220.41C743.169 2231.36 752.129 2240.32 763.084 2240.32H765.254V2300.09C765.254 2311.04 774.214 2320 785.169 2320H818.826C821.565 2320 824.178 2319.44 826.556 2318.43C833.695 2315.4 838.735 2308.3 838.735 2300.09V2240.32H840.905C846.383 2240.32 851.363 2238.08 854.971 2234.47C858.584 2230.86 860.825 2225.88 860.825 2220.41ZM845.235 2220.41C845.235 2222.75 843.256 2224.73 840.911 2224.73H838.741H823.15V2240.32V2300.09C823.15 2302.43 821.171 2304.41 818.826 2304.41H785.169C782.823 2304.41 780.844 2302.43 780.844 2300.09V2240.32V2224.73H765.254H763.084C760.739 2224.73 758.76 2222.75 758.76 2220.41V2158.57C758.76 2144.39 770.3 2132.85 784.48 2132.85H819.52C833.7 2132.85 845.24 2144.39 845.24 2158.57V2220.41H845.235Z" fill="#FCFCFC"/>
<path fill-rule="evenodd" clip-rule="evenodd" d="M788.793 1992C784.878 1992.04 781.613 1993.85 779.242 1996.47C776.871 1999.1 775.246 2002.52 774.079 2006.12C773.173 2008.91 772.561 2011.83 772.139 2014.62C769.238 2016.38 765.943 2018.29 763.453 2021.15C760.819 2024.17 759.265 2028.39 760.349 2033.79C761.881 2041.45 767.756 2047.07 775.392 2050.68C783.029 2054.28 792.519 2056.02 802.016 2056C811.512 2055.98 821.012 2054.23 828.64 2050.62C836.267 2047 842.131 2041.39 843.653 2033.79C844.732 2028.39 843.184 2024.17 840.549 2021.15C838.059 2018.3 834.763 2016.38 831.863 2014.62C831.44 2011.83 830.83 2008.92 829.923 2006.12C828.756 2002.52 827.131 1999.1 824.759 1996.47C822.388 1993.85 819.124 1992.04 815.208 1992C812.103 1991.97 810.06 1994.06 808.552 1995.77C807.045 1997.47 805.798 1998.84 804.792 1999.12C803.087 1999.58 801.159 1999.7 799.24 1999.12C799.23 1999.12 799.22 1999.12 799.21 1999.12C798.21 1998.84 796.96 1997.47 795.45 1995.77C793.94 1994.06 791.899 1991.97 788.794 1992H788.793ZM819.984 2002.35C820.178 2002.36 820.369 2002.4 820.551 2002.47C823.122 2003.3 824.195 2005.74 824.789 2007.88C825.384 2010.02 825.497 2012.13 825.446 2013.47C825.47 2013.74 825.437 2014 825.348 2014.26C825.26 2014.51 825.118 2014.74 824.933 2014.93C824.747 2015.12 824.522 2015.28 824.272 2015.38C824.022 2015.48 823.753 2015.53 823.483 2015.52C823.213 2015.51 822.948 2015.45 822.705 2015.33C822.462 2015.21 822.247 2015.05 822.074 2014.84C821.901 2014.64 821.775 2014.4 821.703 2014.14C821.63 2013.89 821.614 2013.62 821.655 2013.35C821.69 2012.44 821.567 2010.47 821.118 2008.85C820.669 2007.23 819.899 2006.23 819.357 2006.06C818.884 2005.95 818.471 2005.67 818.202 2005.27C817.933 2004.87 817.827 2004.39 817.907 2003.92C817.987 2003.44 818.246 2003.02 818.632 2002.73C819.017 2002.44 819.501 2002.3 819.984 2002.35V2002.35ZM775.512 2018.5C792.799 2028.51 810.775 2028.68 828.52 2018.65C828.789 2021.43 828.854 2023.88 828.789 2025.62C828.779 2025.87 828.256 2026.87 826.759 2027.97C825.263 2029.07 822.994 2030.23 820.252 2031.26C814.775 2033.33 807.449 2034.86 800.523 2034.94C793.606 2034.86 787.081 2033.36 782.376 2031.32C780.022 2030.31 778.135 2029.13 776.914 2028.06C775.694 2026.99 775.259 2026.08 775.243 2025.65C775.243 2025.64 775.243 2025.63 775.243 2025.62C775.175 2023.86 775.233 2021.34 775.512 2018.5V2018.5Z" fill="#FCFCFC"/>
<path d="M212.007 2037.96L172.08 1997.98C170.749 1996.7 168.966 1995.98 167.115 1996C165.264 1996.02 163.493 1996.76 162.184 1998.07C160.876 1999.38 160.133 2001.15 160.117 2003C160.101 2004.86 160.813 2006.64 162.098 2007.98L202.011 2047.96L162.07 2087.92C160.745 2089.25 160 2091.05 160 2092.92C160 2094.8 160.745 2096.6 162.07 2097.93C163.396 2099.25 165.194 2100 167.068 2100C168.943 2100 170.741 2099.25 172.066 2097.93L212.007 2057.95L251.934 2097.93C252.59 2098.58 253.369 2099.11 254.227 2099.46C255.085 2099.82 256.004 2100 256.932 2100C257.86 2100 258.779 2099.82 259.637 2099.46C260.494 2099.11 261.273 2098.58 261.93 2097.93C262.586 2097.27 263.107 2096.49 263.462 2095.63C263.817 2094.77 264 2093.85 264 2092.92C264 2092 263.817 2091.08 263.462 2090.22C263.107 2089.36 262.586 2088.58 261.93 2087.92L221.989 2047.96L261.93 2007.99C263.216 2006.66 263.927 2004.87 263.911 2003.02C263.895 2001.17 263.153 1999.39 261.844 1998.08C260.535 1996.77 258.764 1996.03 256.914 1996.01C255.063 1996 253.279 1996.71 251.948 1998L212.007 2037.95V2037.96Z" fill="white"/>
<path fill-rule="evenodd" clip-rule="evenodd" d="M292.483 2273.69H198.429L225.942 2301.1C230.26 2305.45 230.26 2312.38 225.942 2316.74C221.623 2321.09 214.585 2321.09 210.266 2316.74L163.239 2269.82C158.92 2265.47 158.92 2258.53 163.239 2254.18L210.266 2207.26C214.585 2202.91 221.623 2202.91 225.942 2207.26C230.26 2211.62 230.26 2218.55 225.942 2222.9L198.269 2250.47H292.483C298.881 2250.47 304 2255.63 304 2262.08C304 2268.53 298.881 2273.69 292.483 2273.69Z" fill="white"/>
<defs>
<filter id="filter0_d" x="164" y="1192" width="1112" height="204" filterUnits="userSpaceOnUse" color-interpolation-filters="sRGB">
<feFlood flood-opacity="0" result="BackgroundImageFix"/>
<feColorMatrix in="SourceAlpha" type="matrix" values="0 0 0 0 0 0 0 0 0 0 0 0 0 0 0 0 0 0 127 0"/>
<feOffset dy="4"/>
<feGaussianBlur stdDeviation="2"/>
<feColorMatrix type="matrix" values="0 0 0 0 0 0 0 0 0 0 0 0 0 0 0 0 0 0 0.25 0"/>
<feBlend mode="normal" in2="BackgroundImageFix" result="effect1_dropShadow"/>
<feBlend mode="normal" in="SourceGraphic" in2="effect1_dropShadow" result="shape"/>
</filter>
<filter id="filter1_d" x="588" y="1488" width="264" height="264" filterUnits="userSpaceOnUse" color-interpolation-filters="sRGB">
<feFlood flood-opacity="0" result="BackgroundImageFix"/>
<feColorMatrix in="SourceAlpha" type="matrix" values="0 0 0 0 0 0 0 0 0 0 0 0 0 0 0 0 0 0 127 0"/>
<feOffset dy="4"/>
<feGaussianBlur stdDeviation="2"/>
<feColorMatrix type="matrix" values="0 0 0 0 0 0 0 0 0 0 0 0 0 0 0 0 0 0 0.25 0"/>
<feBlend mode="normal" in2="BackgroundImageFix" result="effect1_dropShadow"/>
<feBlend mode="normal" in="SourceGraphic" in2="effect1_dropShadow" result="shape"/>
</filter>
<linearGradient id="paint0_linear" x1="720" y1="1.20699e-05" x2="720" y2="2560" gradientUnits="userSpaceOnUse">
<stop stop-color="#00A57D"/>
<stop offset="1" stop-color="#240F50"/>
</linearGradient>
<linearGradient id="paint1_linear" x1="740" y1="1032" x2="738.586" y2="1152.02" gradientUnits="userSpaceOnUse">
<stop stop-color="white"/>
<stop offset="1" stop-color="white" stop-opacity="0.6"/>
</linearGradient>
<linearGradient id="paint2_linear" x1="718" y1="192" x2="718" y2="420" gradientUnits="userSpaceOnUse">
<stop offset="0.0165746" stop-color="#00A57D"/>
<stop offset="0.39779" stop-color="#00FFC2"/>
<stop offset="1" stop-color="#00FFC2"/>
</linearGradient>
</defs>
</svg>
