<svg width="317" height="207" viewBox="0 0 317 207" fill="none" xmlns="http://www.w3.org/2000/svg">
<g style="mix-blend-mode:screen" opacity="0.3">
<path d="M281.401 81.6743C283.339 82.279 285.395 82.6043 287.53 82.6043C289.664 82.6043 291.721 82.279 293.658 81.6743C295.596 81.0697 297.409 80.1857 299.054 79.0719C299.819 78.5522 300.534 77.9652 301.224 77.35C305.461 73.5595 308.145 68.0577 308.145 61.9123C308.145 59.7696 307.821 57.7046 307.219 55.7599C306.817 54.4658 306.292 53.2247 305.658 52.0508C305.341 51.4638 304.996 50.8945 304.626 50.3465C302.774 47.5955 300.28 45.3149 297.36 43.7202C294.44 42.1291 291.094 41.2239 287.537 41.2239C284.314 41.2239 281.278 41.9876 278.563 43.3101C279.447 45.863 280.042 48.5502 280.285 51.3401C282.349 49.908 284.843 49.0594 287.537 49.0594C294.599 49.0594 300.343 54.8264 300.343 61.9123C300.343 68.9982 294.599 74.7688 287.537 74.7688C283.134 74.7688 279.242 72.5235 276.939 69.1149C275.784 71.4486 274.399 73.6444 272.758 75.6315C275.47 77.1484 277.957 79.0224 280.137 81.2076C280.553 81.3703 280.968 81.54 281.401 81.6743Z" fill="url(#paint0_linear)"/>
<path d="M296.304 88.113H285.406C286.826 90.5492 287.942 93.1764 288.717 95.952H296.304C303.405 95.952 309.184 101.754 309.184 108.883V139.974C309.184 141.151 308.191 142.148 307.018 142.148H305.933H298.128V149.984V180.035C298.128 181.213 297.135 182.21 295.962 182.21H279.105C278.714 182.21 278.362 182.068 278.042 181.877C278.038 184.628 277.506 187.252 276.58 189.678C277.39 189.893 278.228 190.045 279.105 190.045H295.962C298.706 190.045 301.2 188.917 303.007 187.103C304.813 185.29 305.937 182.786 305.937 180.032V149.98H307.025C312.509 149.98 317 145.476 317 139.97V108.879C317 105.308 316.091 101.942 314.492 99C310.974 92.5293 304.127 88.113 296.304 88.113Z" fill="url(#paint1_linear)"/>
<path d="M237.276 74.3407C240.224 75.7869 243.524 76.6214 247.025 76.6214C247.793 76.6214 248.554 76.5825 249.3 76.5047C250.797 76.3527 252.249 76.0521 253.643 75.6137C255.038 75.1787 256.373 74.6095 257.634 73.92C258.8 73.2835 259.895 72.5374 260.924 71.7101C263.234 69.8537 265.175 67.5519 266.598 64.9247C267.285 63.6589 267.852 62.3188 268.285 60.9186C268.718 59.5183 269.017 58.0616 269.172 56.5588C269.25 55.8092 269.289 55.0455 269.289 54.2746C269.289 50.417 268.317 46.7892 266.601 43.6246C264.544 39.8235 261.424 36.6907 257.637 34.6258C256.376 33.9363 255.042 33.367 253.647 32.9321C252.252 32.4972 250.801 32.1966 249.304 32.041C248.557 31.9632 247.797 31.9244 247.029 31.9244C243.841 31.9244 240.816 32.6103 238.075 33.8196C239.107 36.4998 239.833 39.3285 240.192 42.2774C242.217 41.1106 244.532 40.3892 247.029 40.3892C254.654 40.3892 260.857 46.6159 260.857 54.2711C260.857 61.9263 254.654 68.153 247.029 68.153C242.77 68.153 239.005 66.1693 236.466 63.1249C235.12 65.7238 233.458 68.1282 231.545 70.3063C231.806 70.5609 232.077 70.8013 232.352 71.0418C234.088 72 235.723 73.1173 237.276 74.3407Z" fill="url(#paint2_linear)"/>
<path d="M278.841 138.577V104.997C278.841 104.226 278.802 103.462 278.725 102.713C278.112 96.7016 275.107 91.3695 270.691 87.7063C266.823 84.4993 261.875 82.5687 256.5 82.5687H244.937C246.68 85.1676 248.064 88.0175 249.089 91.0336H256.5C264.171 91.0336 270.412 97.2992 270.412 104.997V138.577C270.412 139.85 269.342 140.925 268.074 140.925H266.897H258.465V149.39V181.842C258.465 183.115 257.395 184.19 256.127 184.19H237.921C237.896 184.19 237.875 184.176 237.85 184.176V187.259C237.85 189.094 237.614 190.869 237.209 192.584C237.449 192.602 237.678 192.655 237.921 192.655H256.123C256.863 192.655 257.588 192.58 258.286 192.436C259.684 192.146 260.987 191.583 262.132 190.802C264.999 188.854 266.89 185.558 266.89 181.842V149.39H268.067C270.289 149.39 272.357 148.707 274.079 147.537C276.95 145.589 278.841 142.293 278.841 138.577Z" fill="url(#paint3_linear)"/>
<path d="M204.812 31.3729C213.216 31.3729 220.053 38.236 220.053 46.6726C220.053 55.1092 213.216 61.9724 204.812 61.9724C200.188 61.9724 196.091 59.8508 193.295 56.5766C192.045 59.5998 190.396 62.4073 188.445 64.9779C189.185 65.6461 189.959 66.2755 190.777 66.8519C191.53 67.3822 192.305 67.8843 193.119 68.3263C193.813 68.7047 194.531 69.0512 195.264 69.3623C198.198 70.607 201.424 71.2965 204.812 71.2965C208.201 71.2965 211.427 70.607 214.361 69.3623C215.093 69.0512 215.808 68.7047 216.506 68.3263C217.319 67.8843 218.094 67.3822 218.848 66.8519C221.962 64.6632 224.557 61.7814 226.382 58.4117C228.27 54.9218 229.344 50.9227 229.344 46.6726C229.344 33.0701 218.362 22.0452 204.812 22.0452C200.226 22.0452 195.947 23.3323 192.273 25.5316C193.686 28.4133 194.774 31.4825 195.419 34.7178C198.015 32.6564 201.251 31.3729 204.812 31.3729Z" fill="url(#paint4_linear)"/>
<path d="M237.843 146.229C239.125 144.327 239.879 142.035 239.879 139.578V102.571C239.879 99.1733 239.185 95.9274 237.935 92.9749C236.684 90.019 234.877 87.3564 232.644 85.1147C232.088 84.556 231.503 84.0221 230.894 83.5165C226.632 79.9841 221.18 77.8555 215.256 77.8555H198.349C200.748 80.6418 202.745 83.7781 204.259 87.1832H215.256C223.709 87.1832 230.588 94.0888 230.588 102.571V139.578C230.588 140.982 229.408 142.166 228.009 142.166H226.713H217.422V151.494V187.259C217.422 188.663 216.242 189.847 214.844 189.847H194.781C194.228 189.847 193.739 189.625 193.313 189.317V194.119C193.313 195.784 193.144 197.407 192.823 198.977C193.464 199.087 194.112 199.179 194.781 199.179H214.844C216.474 199.179 218.035 198.843 219.45 198.238C223.705 196.424 226.71 192.178 226.71 187.263V151.494H228.006C230.454 151.494 232.736 150.741 234.631 149.45C235.895 148.594 236.987 147.495 237.843 146.229Z" fill="url(#paint5_linear)"/>
<path d="M29.463 82.6043C32.0764 82.6043 34.5631 82.0951 36.863 81.2076C39.0432 79.0224 41.5299 77.152 44.2419 75.6315C42.6006 73.6444 41.2164 71.4486 40.0611 69.1149C37.7576 72.5235 33.8657 74.7688 29.463 74.7688C22.4011 74.7688 16.66 69.0018 16.66 61.9123C16.66 54.8229 22.4046 49.0594 29.463 49.0594C32.1574 49.0594 34.6511 49.908 36.7151 51.3401C36.9581 48.5502 37.5534 45.863 38.4374 43.3101C35.7218 41.9876 32.6822 41.2239 29.4595 41.2239C22.3448 41.2239 16.0718 44.8411 12.3701 50.3465C12.0002 50.8981 11.6551 51.4673 11.3381 52.0508C10.7041 53.2247 10.1793 54.4658 9.77776 55.7599C9.17548 57.7046 8.85144 59.7696 8.85144 61.9123C8.85144 68.0577 11.5353 73.5595 15.7689 77.35C15.9662 77.5232 16.1493 77.7142 16.3501 77.8803C19.9145 80.8328 24.4827 82.6043 29.463 82.6043Z" fill="url(#paint6_linear)"/>
<path d="M37.8912 182.21H21.0342C19.8613 182.21 18.8681 181.213 18.8681 180.035V149.984V142.148H11.0595H9.97118C8.79831 142.148 7.80506 141.151 7.80506 139.974V108.883C7.80506 101.754 13.5849 95.952 20.6855 95.952H28.2722C29.0471 93.1764 30.1636 90.5527 31.583 88.113H20.6855C12.8629 88.113 6.01934 92.5293 2.50424 99.0035C0.908712 101.945 0 105.311 0 108.883V139.974C0 142.728 1.12356 145.228 2.93042 147.045C4.73728 148.859 7.23095 149.987 9.9747 149.987H11.0595V180.039C11.0595 182.793 12.1831 185.297 13.9899 187.11C15.7968 188.924 18.2905 190.052 21.0342 190.052H37.8912C38.7682 190.052 39.6065 189.9 40.4166 189.685C39.4902 187.255 38.9619 184.632 38.9549 181.884C38.6344 182.072 38.2821 182.21 37.8912 182.21Z" fill="url(#paint7_linear)"/>
<path d="M48.7114 60.9186C49.1447 62.3188 49.7117 63.6589 50.3985 64.9248C51.8215 67.5555 53.7622 69.8538 56.0727 71.7101C57.1012 72.5375 58.1966 73.2836 59.3624 73.92C62.5147 75.6385 66.1319 76.6179 69.9711 76.6179C73.4721 76.6179 76.7723 75.7834 79.7204 74.3373C81.2701 73.1174 82.9079 71.9965 84.6478 71.0418C84.919 70.8014 85.1938 70.5609 85.4544 70.3064C83.5384 68.1283 81.8794 65.7239 80.534 63.125C77.9945 66.1729 74.2293 68.1565 69.9711 68.1565C62.3456 68.1565 56.1432 61.9299 56.1432 54.2747C56.1432 46.6195 62.3456 40.3928 69.9711 40.3928C72.4683 40.3928 74.7823 41.1142 76.8075 42.281C77.1703 39.3356 77.8924 36.5069 78.9244 33.8232C76.1841 32.6104 73.1586 31.9279 69.9711 31.9279C57.6788 31.9279 47.7111 41.9309 47.7111 54.2747C47.7111 55.0455 47.7499 55.8093 47.8274 56.5589C47.9753 58.0616 48.2747 59.5219 48.7114 60.9186Z" fill="url(#paint8_linear)"/>
<path d="M79.1389 184.179C79.1142 184.179 79.0966 184.193 79.0719 184.193H60.866C59.598 184.193 58.5273 183.118 58.5273 181.846V149.393V140.928H50.0953H48.9189C47.6509 140.928 46.5802 139.854 46.5802 138.581V105C46.5802 97.2992 52.8214 91.0372 60.4891 91.0372H67.9032C68.9282 88.0211 70.3124 85.1711 72.0558 82.5723H60.4927C48.9717 82.5723 39.4162 91.4438 38.2679 102.716C38.1905 103.469 38.1517 104.23 38.1517 105V138.581C38.1517 144.528 42.9982 149.393 48.9224 149.393H50.0988V181.846C50.0988 186.304 52.825 190.158 56.6887 191.806C57.9743 192.354 59.3902 192.658 60.8695 192.658H79.0719C79.315 192.658 79.5439 192.602 79.7799 192.588C79.3748 190.876 79.1389 189.098 79.1389 187.263V184.179Z" fill="url(#paint9_linear)"/>
<path d="M98.1443 66.852C98.898 67.3823 99.6729 67.8844 100.487 68.3264C101.18 68.7048 101.899 69.0513 102.631 69.3624C105.565 70.6071 108.792 71.2966 112.18 71.2966C115.568 71.2966 118.795 70.6071 121.729 69.3624C122.461 69.0513 123.176 68.7048 123.874 68.3264C124.687 67.8844 125.462 67.3823 126.216 66.852C127.033 66.2756 127.808 65.6462 128.547 64.9779C126.6 62.4074 124.948 59.5999 123.697 56.5732C120.901 59.8474 116.801 61.9689 112.176 61.9689C103.773 61.9689 96.9362 55.1058 96.9362 46.6692C96.9362 38.2326 103.773 31.3694 112.176 31.3694C115.737 31.3694 118.974 32.6529 121.57 34.7144C122.215 31.479 123.303 28.4099 124.715 25.5281C121.042 23.3288 116.766 22.0418 112.176 22.0418C98.6268 22.0418 87.6448 33.0666 87.6448 46.6692C87.6448 50.9193 88.7155 54.9184 90.6069 58.4083C92.4349 61.7815 95.0307 64.6668 98.1443 66.852Z" fill="url(#paint10_linear)"/>
<path d="M123.68 189.317C123.254 189.628 122.764 189.847 122.211 189.847H102.149C100.751 189.847 99.5707 188.663 99.5707 187.259V151.494V142.166H90.2793H88.9832C87.5849 142.166 86.4049 140.982 86.4049 139.578V102.571C86.4049 94.0852 93.2837 87.1832 101.737 87.1832H112.733C114.247 83.7781 116.248 80.6418 118.643 77.8555H101.733C95.8091 77.8555 90.3568 79.9841 86.095 83.5165C85.4857 84.0221 84.901 84.556 84.3445 85.1147C82.115 87.3529 80.3046 90.019 79.0542 92.9749C78.7408 93.7139 78.4625 94.4706 78.223 95.2415C77.501 97.561 77.11 100.022 77.11 102.571V139.578C77.11 146.13 82.4531 151.494 88.9796 151.494H90.2758V187.259C90.2758 193.811 95.6189 199.175 102.145 199.175H122.207C122.877 199.175 123.525 199.083 124.166 198.973C123.845 197.404 123.676 195.781 123.676 194.115V189.317H123.68Z" fill="url(#paint11_linear)"/>
<path d="M139.744 60.9716C141.206 62.439 142.851 63.7084 144.619 64.801C148.659 67.3008 153.4 68.7682 158.496 68.7682C162.159 68.7682 165.646 68.0222 168.82 66.675C170.06 66.1481 171.239 65.5046 172.374 64.801C177.044 61.9122 180.774 57.6338 182.929 52.5103C184.271 49.3244 185.015 45.8239 185.015 42.1466C185.015 34.7955 185.203 35.8693 180.406 31.0499C178.008 28.642 173.271 29.8096 170.097 28.4624C166.232 28.4624 159.586 29.7562 155.923 29.7562C141.278 29.7562 131.978 27.4444 131.978 42.1466C131.978 45.8239 132.721 49.3244 134.063 52.5103C135.405 55.6961 137.346 58.5637 139.744 60.9716ZM157.211 37.5187C166.295 37.5187 174.969 33.0276 174.969 42.1466C174.969 51.2656 167.58 58.6839 158.496 58.6839C149.413 58.6839 142.023 51.2656 142.023 42.1466C142.023 33.0276 148.128 37.5187 157.211 37.5187Z" fill="url(#paint12_linear)"/>
<path d="M196.402 142.576V102.575C196.402 92.4729 190.742 83.6297 182.447 79.0932C178.678 77.0317 174.364 75.8543 169.788 75.8543H147.212C132.573 75.8543 120.595 87.8763 120.595 102.575V142.576C120.595 149.662 126.367 155.458 133.426 155.458H134.824V194.119C134.824 201.205 140.597 207 147.655 207H169.341C171.106 207 172.789 206.639 174.321 205.985C178.921 204.023 182.169 199.433 182.169 194.122V155.458H183.567C187.096 155.458 190.305 154.008 192.63 151.674C194.958 149.337 196.402 146.119 196.402 142.576ZM186.357 142.576C186.357 144.093 185.082 145.373 183.571 145.373H182.172H172.127V155.458V194.119C172.127 195.636 170.852 196.916 169.341 196.916H147.655C146.144 196.916 144.869 195.636 144.869 194.119V155.458V145.373H134.824H133.426C131.915 145.373 130.64 144.093 130.64 142.576V102.575C130.64 93.4028 138.075 85.9386 147.212 85.9386H169.788C178.925 85.9386 186.36 93.4028 186.36 102.575V142.576H186.357Z" fill="url(#paint13_linear)"/>
<path fill-rule="evenodd" clip-rule="evenodd" d="M149.991 0.000241957C147.468 0.0256297 145.364 1.19413 143.837 2.89213C142.309 4.59034 141.262 6.80254 140.51 9.13252C139.926 10.9415 139.532 12.8304 139.26 14.6309C137.391 15.7709 135.268 17.0087 133.664 18.8546C131.966 20.8073 130.965 23.5381 131.664 27.0355C132.651 31.9859 136.436 35.6221 141.356 37.9563C146.276 40.2905 152.391 41.4109 158.51 41.3999C164.629 41.3889 170.749 40.2573 175.664 37.9182C180.578 35.5792 184.357 31.9469 185.337 27.0355C186.032 23.5378 185.035 20.8072 183.337 18.8546C181.733 17.0096 179.609 15.7706 177.741 14.6309C177.468 12.83 177.075 10.942 176.491 9.13252C175.739 6.80261 174.692 4.59031 173.164 2.89213C171.636 1.19417 169.533 0.0256601 167.01 0.000241957C165.009 -0.0207623 163.693 1.33327 162.722 2.43552C161.75 3.53728 160.947 4.42288 160.298 4.60443C159.2 4.90158 157.958 4.98397 156.721 4.60443C156.715 4.60438 156.709 4.60438 156.702 4.60443C156.058 4.42421 155.252 3.53816 154.279 2.43552C153.307 1.33305 151.992 -0.0207866 149.991 0.000241957H149.991ZM170.087 6.69724C170.212 6.70408 170.335 6.72974 170.452 6.77335C172.109 7.31214 172.8 8.88856 173.183 10.2741C173.566 11.6595 173.639 13.0184 173.606 13.8889C173.622 14.0605 173.6 14.2335 173.543 14.3963C173.486 14.5591 173.395 14.7081 173.275 14.8334C173.156 14.9587 173.011 15.0575 172.85 15.1233C172.689 15.189 172.516 15.2202 172.342 15.2148C172.167 15.2094 171.997 15.1675 171.84 15.0918C171.684 15.0162 171.545 14.9085 171.434 14.776C171.322 14.6435 171.241 14.4891 171.194 14.3231C171.148 14.157 171.137 13.9831 171.164 13.8128C171.186 13.2247 171.107 11.949 170.818 10.9019C170.528 9.85481 170.032 9.20806 169.683 9.09447C169.378 9.02416 169.112 8.84178 168.939 8.58434C168.765 8.32691 168.697 8.01373 168.749 7.7085C168.8 7.40326 168.967 7.12884 169.216 6.94101C169.464 6.75317 169.776 6.66602 170.087 6.69724V6.69724ZM141.433 17.1423C152.571 23.6182 164.154 23.7303 175.587 17.2374C175.76 19.0372 175.802 20.6233 175.76 21.7465C175.754 21.9091 175.417 22.5564 174.452 23.2686C173.488 23.9807 172.027 24.7317 170.26 25.3994C166.731 26.7332 162.011 27.7222 157.548 27.7776C153.092 27.7222 148.887 26.7522 145.856 25.4375C144.339 24.7793 143.123 24.0182 142.337 23.3256C141.551 22.6331 141.27 22.0474 141.26 21.7655C141.26 21.7592 141.26 21.7529 141.26 21.7466C141.216 20.6065 141.254 18.9772 141.433 17.1424V17.1423Z" fill="url(#paint14_linear)"/>
</g>
<defs>
<linearGradient id="paint0_linear" x1="290.452" y1="41.2239" x2="290.452" y2="82.6043" gradientUnits="userSpaceOnUse">
<stop stop-color="#00F6BB"/>
<stop offset="1" stop-color="#101010"/>
</linearGradient>
<linearGradient id="paint1_linear" x1="296.79" y1="88.113" x2="296.79" y2="190.045" gradientUnits="userSpaceOnUse">
<stop stop-color="#00F6BB"/>
<stop offset="1" stop-color="#101010"/>
</linearGradient>
<linearGradient id="paint2_linear" x1="250.417" y1="31.9244" x2="250.417" y2="76.6214" gradientUnits="userSpaceOnUse">
<stop stop-color="#00F6BB"/>
<stop offset="1" stop-color="#101010"/>
</linearGradient>
<linearGradient id="paint3_linear" x1="258.025" y1="82.5687" x2="258.025" y2="192.655" gradientUnits="userSpaceOnUse">
<stop stop-color="#00F6BB"/>
<stop offset="1" stop-color="#101010"/>
</linearGradient>
<linearGradient id="paint4_linear" x1="208.894" y1="22.0452" x2="208.894" y2="71.2965" gradientUnits="userSpaceOnUse">
<stop stop-color="#00F6BB"/>
<stop offset="1" stop-color="#101010"/>
</linearGradient>
<linearGradient id="paint5_linear" x1="216.351" y1="77.8555" x2="216.351" y2="199.179" gradientUnits="userSpaceOnUse">
<stop stop-color="#00F6BB"/>
<stop offset="1" stop-color="#101010"/>
</linearGradient>
<linearGradient id="paint6_linear" x1="26.5467" y1="41.2239" x2="26.5467" y2="82.6043" gradientUnits="userSpaceOnUse">
<stop stop-color="#00F6BB"/>
<stop offset="1" stop-color="#101010"/>
</linearGradient>
<linearGradient id="paint7_linear" x1="20.2083" y1="88.113" x2="20.2083" y2="190.052" gradientUnits="userSpaceOnUse">
<stop stop-color="#00F6BB"/>
<stop offset="1" stop-color="#101010"/>
</linearGradient>
<linearGradient id="paint8_linear" x1="66.5828" y1="31.9279" x2="66.5828" y2="76.6179" gradientUnits="userSpaceOnUse">
<stop stop-color="#00F6BB"/>
<stop offset="1" stop-color="#101010"/>
</linearGradient>
<linearGradient id="paint9_linear" x1="58.9658" y1="82.5723" x2="58.9658" y2="192.658" gradientUnits="userSpaceOnUse">
<stop stop-color="#00F6BB"/>
<stop offset="1" stop-color="#101010"/>
</linearGradient>
<linearGradient id="paint10_linear" x1="108.096" y1="22.0418" x2="108.096" y2="71.2966" gradientUnits="userSpaceOnUse">
<stop stop-color="#00F6BB"/>
<stop offset="1" stop-color="#101010"/>
</linearGradient>
<linearGradient id="paint11_linear" x1="100.638" y1="77.8555" x2="100.638" y2="199.175" gradientUnits="userSpaceOnUse">
<stop stop-color="#00F6BB"/>
<stop offset="1" stop-color="#101010"/>
</linearGradient>
<linearGradient id="paint12_linear" x1="158.497" y1="28.4624" x2="158.497" y2="68.7682" gradientUnits="userSpaceOnUse">
<stop stop-color="#ED303B"/>
<stop offset="1" stop-color="#101010"/>
</linearGradient>
<linearGradient id="paint13_linear" x1="158.498" y1="75.8543" x2="158.498" y2="207" gradientUnits="userSpaceOnUse">
<stop stop-color="#ED303B"/>
<stop offset="1" stop-color="#101010"/>
</linearGradient>
<linearGradient id="paint14_linear" x1="158.5" y1="0" x2="158.5" y2="41.4" gradientUnits="userSpaceOnUse">
<stop stop-color="#ED303B"/>
<stop offset="1" stop-color="#101010"/>
</linearGradient>
</defs>
</svg>
