<svg width="59" height="59" viewBox="0 0 59 59" fill="none" xmlns="http://www.w3.org/2000/svg">
<g filter="url(#filter0_d)">
<path fill-rule="evenodd" clip-rule="evenodd" d="M31.7885 23.5385H41.6557C42.5243 23.5385 43.2308 24.2437 43.2308 25.1136V26.5403C43.2308 27.4103 42.5256 28.1154 41.6557 28.1154H31.7885V37.9826C31.7885 38.8513 31.0833 39.5577 30.2133 39.5577H28.7867C27.9166 39.5577 27.2115 38.8525 27.2115 37.9826V28.1154H17.3443C16.4757 28.1154 15.7692 27.4102 15.7692 26.5403V25.1136C15.7692 24.2436 16.4744 23.5385 17.3443 23.5385H27.2115V13.6712C27.2115 12.8026 27.9167 12.0962 28.7867 12.0962H30.2133C31.0834 12.0962 31.7885 12.8014 31.7885 13.6712V23.5385ZM4 25.5C4 11.4167 15.4136 0 29.5 0C43.5833 0 55 11.4136 55 25.5C55 39.5833 43.5864 51 29.5 51C15.4167 51 4 39.5864 4 25.5Z" fill="#00FFC2"/>
</g>
<defs>
<filter id="filter0_d" x="0" y="0" width="59" height="59" filterUnits="userSpaceOnUse" color-interpolation-filters="sRGB">
<feFlood flood-opacity="0" result="BackgroundImageFix"/>
<feColorMatrix in="SourceAlpha" type="matrix" values="0 0 0 0 0 0 0 0 0 0 0 0 0 0 0 0 0 0 127 0"/>
<feOffset dy="4"/>
<feGaussianBlur stdDeviation="2"/>
<feColorMatrix type="matrix" values="0 0 0 0 0 0 0 0 0 0 0 0 0 0 0 0 0 0 0.25 0"/>
<feBlend mode="normal" in2="BackgroundImageFix" result="effect1_dropShadow"/>
<feBlend mode="normal" in="SourceGraphic" in2="effect1_dropShadow" result="shape"/>
</filter>
</defs>
</svg>
